<?xml version="1.0" encoding="utf-8" standalone="no"?>
<!DOCTYPE svg PUBLIC "-//W3C//DTD SVG 1.1//EN"
  "http://www.w3.org/Graphics/SVG/1.1/DTD/svg11.dtd">
<svg xmlns:xlink="http://www.w3.org/1999/xlink" width="161.420312pt" height="170.754375pt" viewBox="0 0 161.420312 170.754375" xmlns="http://www.w3.org/2000/svg" version="1.1">
 <metadata>
  <rdf:RDF xmlns:dc="http://purl.org/dc/elements/1.1/" xmlns:cc="http://creativecommons.org/ns#" xmlns:rdf="http://www.w3.org/1999/02/22-rdf-syntax-ns#">
   <cc:Work>
    <dc:type rdf:resource="http://purl.org/dc/dcmitype/StillImage"/>
    <dc:date>2025-03-31T10:33:26.661326</dc:date>
    <dc:format>image/svg+xml</dc:format>
    <dc:creator>
     <cc:Agent>
      <dc:title>Matplotlib v3.7.2, https://matplotlib.org/</dc:title>
     </cc:Agent>
    </dc:creator>
   </cc:Work>
  </rdf:RDF>
 </metadata>
 <defs>
  <style type="text/css">*{stroke-linejoin: round; stroke-linecap: butt}</style>
 </defs>
 <g id="figure_1">
  <g id="patch_1">
   <path d="M 0 170.754375 
L 161.420312 170.754375 
L 161.420312 0 
L 0 0 
z
" style="fill: #ffffff"/>
  </g>
  <g id="axes_1">
   <g id="patch_2">
    <path d="M 42.620312 133.198125 
L 154.220313 133.198125 
L 154.220313 22.318125 
L 42.620312 22.318125 
z
" style="fill: #ffffff"/>
   </g>
   <g id="PathCollection_1">
    <defs>
     <path id="ma399fd5153" d="M 0 3 
C 0.795609 3 1.55874 2.683901 2.12132 2.12132 
C 2.683901 1.55874 3 0.795609 3 0 
C 3 -0.795609 2.683901 -1.55874 2.12132 -2.12132 
C 1.55874 -2.683901 0.795609 -3 0 -3 
C -0.795609 -3 -1.55874 -2.683901 -2.12132 -2.12132 
C -2.683901 -1.55874 -3 -0.795609 -3 0 
C -3 0.795609 -2.683901 1.55874 -2.12132 2.12132 
C -1.55874 2.683901 -0.795609 3 0 3 
z
" style="stroke: #0000ff"/>
    </defs>
    <g clip-path="url(#pd32ebf46a0)">
     <use xlink:href="#ma399fd5153" x="149.147585" y="27.358125" style="fill: #0000ff; stroke: #0000ff"/>
     <use xlink:href="#ma399fd5153" x="145.765771" y="33.743224" style="fill: #0000ff; stroke: #0000ff"/>
     <use xlink:href="#ma399fd5153" x="136.311612" y="73.722605" style="fill: #0000ff; stroke: #0000ff"/>
     <use xlink:href="#ma399fd5153" x="119.064051" y="128.077111" style="fill: #0000ff; stroke: #0000ff"/>
     <use xlink:href="#ma399fd5153" x="118.232994" y="128.153996" style="fill: #0000ff; stroke: #0000ff"/>
     <use xlink:href="#ma399fd5153" x="118.418352" y="128.157951" style="fill: #0000ff; stroke: #0000ff"/>
     <use xlink:href="#ma399fd5153" x="118.380229" y="128.158117" style="fill: #0000ff; stroke: #0000ff"/>
     <use xlink:href="#ma399fd5153" x="118.388226" y="128.158125" style="fill: #0000ff; stroke: #0000ff"/>
     <use xlink:href="#ma399fd5153" x="118.386553" y="128.158125" style="fill: #0000ff; stroke: #0000ff"/>
     <use xlink:href="#ma399fd5153" x="118.386905" y="128.158125" style="fill: #0000ff; stroke: #0000ff"/>
     <use xlink:href="#ma399fd5153" x="118.386831" y="128.158125" style="fill: #0000ff; stroke: #0000ff"/>
     <use xlink:href="#ma399fd5153" x="118.386844" y="128.158125" style="fill: #0000ff; stroke: #0000ff"/>
     <use xlink:href="#ma399fd5153" x="118.386844" y="128.158125" style="fill: #0000ff; stroke: #0000ff"/>
     <use xlink:href="#ma399fd5153" x="118.386845" y="128.158125" style="fill: #0000ff; stroke: #0000ff"/>
     <use xlink:href="#ma399fd5153" x="118.386845" y="128.158125" style="fill: #0000ff; stroke: #0000ff"/>
     <use xlink:href="#ma399fd5153" x="118.386846" y="128.158125" style="fill: #0000ff; stroke: #0000ff"/>
     <use xlink:href="#ma399fd5153" x="118.386846" y="128.158125" style="fill: #0000ff; stroke: #0000ff"/>
     <use xlink:href="#ma399fd5153" x="118.386846" y="128.158125" style="fill: #0000ff; stroke: #0000ff"/>
     <use xlink:href="#ma399fd5153" x="118.386847" y="128.158125" style="fill: #0000ff; stroke: #0000ff"/>
    </g>
   </g>
   <g id="matplotlib.axis_1">
    <g id="xtick_1">
     <g id="line2d_1">
      <defs>
       <path id="m07d4d1ace8" d="M 0 0 
L 0 3.5 
" style="stroke: #000000; stroke-width: 0.8"/>
      </defs>
      <g>
       <use xlink:href="#m07d4d1ace8" x="81.511222" y="133.198125" style="stroke: #000000; stroke-width: 0.8"/>
      </g>
     </g>
     <g id="text_1">
      <!-- 0 -->
      <g transform="translate(78.329972 147.796563) scale(0.1 -0.1)">
       <defs>
        <path id="DejaVuSans-30" d="M 2034 4250 
Q 1547 4250 1301 3770 
Q 1056 3291 1056 2328 
Q 1056 1369 1301 889 
Q 1547 409 2034 409 
Q 2525 409 2770 889 
Q 3016 1369 3016 2328 
Q 3016 3291 2770 3770 
Q 2525 4250 2034 4250 
z
M 2034 4750 
Q 2819 4750 3233 4129 
Q 3647 3509 3647 2328 
Q 3647 1150 3233 529 
Q 2819 -91 2034 -91 
Q 1250 -91 836 529 
Q 422 1150 422 2328 
Q 422 3509 836 4129 
Q 1250 4750 2034 4750 
z
" transform="scale(0.015625)"/>
       </defs>
       <use xlink:href="#DejaVuSans-30"/>
      </g>
     </g>
    </g>
    <g id="xtick_2">
     <g id="line2d_2">
      <g>
       <use xlink:href="#m07d4d1ace8" x="149.147585" y="133.198125" style="stroke: #000000; stroke-width: 0.8"/>
      </g>
     </g>
     <g id="text_2">
      <!-- 2 -->
      <g transform="translate(145.966335 147.796563) scale(0.1 -0.1)">
       <defs>
        <path id="DejaVuSans-32" d="M 1228 531 
L 3431 531 
L 3431 0 
L 469 0 
L 469 531 
Q 828 903 1448 1529 
Q 2069 2156 2228 2338 
Q 2531 2678 2651 2914 
Q 2772 3150 2772 3378 
Q 2772 3750 2511 3984 
Q 2250 4219 1831 4219 
Q 1534 4219 1204 4116 
Q 875 4013 500 3803 
L 500 4441 
Q 881 4594 1212 4672 
Q 1544 4750 1819 4750 
Q 2544 4750 2975 4387 
Q 3406 4025 3406 3419 
Q 3406 3131 3298 2873 
Q 3191 2616 2906 2266 
Q 2828 2175 2409 1742 
Q 1991 1309 1228 531 
z
" transform="scale(0.015625)"/>
       </defs>
       <use xlink:href="#DejaVuSans-32"/>
      </g>
     </g>
    </g>
    <g id="text_3">
     <!-- x -->
     <g transform="translate(95.460938 161.474688) scale(0.1 -0.1)">
      <defs>
       <path id="DejaVuSans-78" d="M 3513 3500 
L 2247 1797 
L 3578 0 
L 2900 0 
L 1881 1375 
L 863 0 
L 184 0 
L 1544 1831 
L 300 3500 
L 978 3500 
L 1906 2253 
L 2834 3500 
L 3513 3500 
z
" transform="scale(0.015625)"/>
      </defs>
      <use xlink:href="#DejaVuSans-78"/>
     </g>
    </g>
   </g>
   <g id="matplotlib.axis_2">
    <g id="ytick_1">
     <g id="line2d_3">
      <defs>
       <path id="m7b96f2919e" d="M 0 0 
L -3.5 0 
" style="stroke: #000000; stroke-width: 0.8"/>
      </defs>
      <g>
       <use xlink:href="#m7b96f2919e" x="42.620312" y="126.612369" style="stroke: #000000; stroke-width: 0.8"/>
      </g>
     </g>
     <g id="text_4">
      <!-- −1 -->
      <g transform="translate(20.878125 130.411588) scale(0.1 -0.1)">
       <defs>
        <path id="DejaVuSans-2212" d="M 678 2272 
L 4684 2272 
L 4684 1741 
L 678 1741 
L 678 2272 
z
" transform="scale(0.015625)"/>
        <path id="DejaVuSans-31" d="M 794 531 
L 1825 531 
L 1825 4091 
L 703 3866 
L 703 4441 
L 1819 4666 
L 2450 4666 
L 2450 531 
L 3481 531 
L 3481 0 
L 794 0 
L 794 531 
z
" transform="scale(0.015625)"/>
       </defs>
       <use xlink:href="#DejaVuSans-2212"/>
       <use xlink:href="#DejaVuSans-31" x="83.789062"/>
      </g>
     </g>
    </g>
    <g id="ytick_2">
     <g id="line2d_4">
      <g>
       <use xlink:href="#m7b96f2919e" x="42.620312" y="93.527621" style="stroke: #000000; stroke-width: 0.8"/>
      </g>
     </g>
     <g id="text_5">
      <!-- 0 -->
      <g transform="translate(29.257812 97.32684) scale(0.1 -0.1)">
       <use xlink:href="#DejaVuSans-30"/>
      </g>
     </g>
    </g>
    <g id="ytick_3">
     <g id="line2d_5">
      <g>
       <use xlink:href="#m7b96f2919e" x="42.620312" y="60.442873" style="stroke: #000000; stroke-width: 0.8"/>
      </g>
     </g>
     <g id="text_6">
      <!-- 1 -->
      <g transform="translate(29.257812 64.242092) scale(0.1 -0.1)">
       <use xlink:href="#DejaVuSans-31"/>
      </g>
     </g>
    </g>
    <g id="ytick_4">
     <g id="line2d_6">
      <g>
       <use xlink:href="#m7b96f2919e" x="42.620312" y="27.358125" style="stroke: #000000; stroke-width: 0.8"/>
      </g>
     </g>
     <g id="text_7">
      <!-- 2 -->
      <g transform="translate(29.257812 31.157344) scale(0.1 -0.1)">
       <use xlink:href="#DejaVuSans-32"/>
      </g>
     </g>
    </g>
    <g id="text_8">
     <!-- y -->
     <g transform="translate(14.798437 80.7175) rotate(-90) scale(0.1 -0.1)">
      <defs>
       <path id="DejaVuSans-79" d="M 2059 -325 
Q 1816 -950 1584 -1140 
Q 1353 -1331 966 -1331 
L 506 -1331 
L 506 -850 
L 844 -850 
Q 1081 -850 1212 -737 
Q 1344 -625 1503 -206 
L 1606 56 
L 191 3500 
L 800 3500 
L 1894 763 
L 2988 3500 
L 3597 3500 
L 2059 -325 
z
" transform="scale(0.015625)"/>
      </defs>
      <use xlink:href="#DejaVuSans-79"/>
     </g>
    </g>
   </g>
   <g id="line2d_7">
    <path d="M 47.69304 60.442873 
L 48.707584 61.577841 
L 50.060312 63.499819 
L 51.413038 65.822983 
L 53.10395 69.17402 
L 55.471222 74.41835 
L 60.88213 86.691313 
L 62.911221 90.681042 
L 64.602132 93.527622 
L 65.954859 95.435066 
L 67.307586 96.983316 
L 68.660313 98.155758 
L 69.674857 98.784677 
L 70.689403 99.200483 
L 71.703948 99.408205 
L 72.718495 99.416119 
L 73.73304 99.235585 
L 75.085767 98.726734 
L 76.438494 97.94943 
L 78.129404 96.674168 
L 80.158494 94.840576 
L 85.231222 90.103453 
L 86.922131 88.88884 
L 88.274858 88.174396 
L 89.627586 87.739363 
L 90.642131 87.620201 
L 91.656677 87.693604 
L 92.671222 87.969924 
L 93.685768 88.456374 
L 94.700313 89.15687 
L 96.05304 90.42422 
L 97.405767 92.064253 
L 98.758494 94.057623 
L 100.449403 96.999321 
L 102.478494 101.078794 
L 105.183948 107.140328 
L 109.918493 117.881222 
L 111.947584 121.846539 
L 113.300312 124.076422 
L 114.65304 125.886695 
L 115.667585 126.926726 
L 116.682129 127.664442 
L 117.696678 128.075739 
L 118.373041 128.158093 
L 119.049404 128.08059 
L 119.725767 127.838581 
L 120.402134 127.428152 
L 121.416674 126.490186 
L 122.431219 125.159536 
L 123.445767 123.433618 
L 124.460312 121.314379 
L 125.813042 117.888881 
L 127.165768 113.804828 
L 128.856675 107.840875 
L 130.547583 101.032236 
L 132.576676 91.958402 
L 135.620309 77.16964 
L 140.354858 54.119967 
L 142.383947 45.348605 
L 144.074855 38.991978 
L 145.427585 34.694183 
L 146.780311 31.211856 
L 147.794859 29.192843 
L 148.809404 27.721463 
L 148.809404 27.721463 
" clip-path="url(#pd32ebf46a0)" style="fill: none; stroke: #1f77b4; stroke-width: 1.5; stroke-linecap: square"/>
   </g>
   <g id="line2d_8">
    <path d="M 149.147585 27.358125 
L 145.765771 33.743224 
L 136.311612 73.722605 
L 119.064051 128.077111 
L 118.232994 128.153996 
L 118.418352 128.157951 
L 118.380229 128.158117 
L 118.388226 128.158125 
L 118.386553 128.158125 
L 118.386905 128.158125 
L 118.386831 128.158125 
L 118.386844 128.158125 
L 118.386844 128.158125 
L 118.386845 128.158125 
L 118.386845 128.158125 
L 118.386846 128.158125 
L 118.386846 128.158125 
L 118.386846 128.158125 
L 118.386847 128.158125 
" clip-path="url(#pd32ebf46a0)" style="fill: none; stroke: #0000ff; stroke-width: 1.5; stroke-linecap: square"/>
   </g>
   <g id="patch_3">
    <path d="M 42.620312 133.198125 
L 42.620312 22.318125 
" style="fill: none; stroke: #000000; stroke-width: 0.8; stroke-linejoin: miter; stroke-linecap: square"/>
   </g>
   <g id="patch_4">
    <path d="M 154.220313 133.198125 
L 154.220313 22.318125 
" style="fill: none; stroke: #000000; stroke-width: 0.8; stroke-linejoin: miter; stroke-linecap: square"/>
   </g>
   <g id="patch_5">
    <path d="M 42.620312 133.198125 
L 154.220312 133.198125 
" style="fill: none; stroke: #000000; stroke-width: 0.8; stroke-linejoin: miter; stroke-linecap: square"/>
   </g>
   <g id="patch_6">
    <path d="M 42.620312 22.318125 
L 154.220312 22.318125 
" style="fill: none; stroke: #000000; stroke-width: 0.8; stroke-linejoin: miter; stroke-linecap: square"/>
   </g>
   <g id="text_9">
    <!-- Function -->
    <g transform="translate(72.9025 16.318125) scale(0.12 -0.12)">
     <defs>
      <path id="DejaVuSans-46" d="M 628 4666 
L 3309 4666 
L 3309 4134 
L 1259 4134 
L 1259 2759 
L 3109 2759 
L 3109 2228 
L 1259 2228 
L 1259 0 
L 628 0 
L 628 4666 
z
" transform="scale(0.015625)"/>
      <path id="DejaVuSans-75" d="M 544 1381 
L 544 3500 
L 1119 3500 
L 1119 1403 
Q 1119 906 1312 657 
Q 1506 409 1894 409 
Q 2359 409 2629 706 
Q 2900 1003 2900 1516 
L 2900 3500 
L 3475 3500 
L 3475 0 
L 2900 0 
L 2900 538 
Q 2691 219 2414 64 
Q 2138 -91 1772 -91 
Q 1169 -91 856 284 
Q 544 659 544 1381 
z
M 1991 3584 
L 1991 3584 
z
" transform="scale(0.015625)"/>
      <path id="DejaVuSans-6e" d="M 3513 2113 
L 3513 0 
L 2938 0 
L 2938 2094 
Q 2938 2591 2744 2837 
Q 2550 3084 2163 3084 
Q 1697 3084 1428 2787 
Q 1159 2491 1159 1978 
L 1159 0 
L 581 0 
L 581 3500 
L 1159 3500 
L 1159 2956 
Q 1366 3272 1645 3428 
Q 1925 3584 2291 3584 
Q 2894 3584 3203 3211 
Q 3513 2838 3513 2113 
z
" transform="scale(0.015625)"/>
      <path id="DejaVuSans-63" d="M 3122 3366 
L 3122 2828 
Q 2878 2963 2633 3030 
Q 2388 3097 2138 3097 
Q 1578 3097 1268 2742 
Q 959 2388 959 1747 
Q 959 1106 1268 751 
Q 1578 397 2138 397 
Q 2388 397 2633 464 
Q 2878 531 3122 666 
L 3122 134 
Q 2881 22 2623 -34 
Q 2366 -91 2075 -91 
Q 1284 -91 818 406 
Q 353 903 353 1747 
Q 353 2603 823 3093 
Q 1294 3584 2113 3584 
Q 2378 3584 2631 3529 
Q 2884 3475 3122 3366 
z
" transform="scale(0.015625)"/>
      <path id="DejaVuSans-74" d="M 1172 4494 
L 1172 3500 
L 2356 3500 
L 2356 3053 
L 1172 3053 
L 1172 1153 
Q 1172 725 1289 603 
Q 1406 481 1766 481 
L 2356 481 
L 2356 0 
L 1766 0 
Q 1100 0 847 248 
Q 594 497 594 1153 
L 594 3053 
L 172 3053 
L 172 3500 
L 594 3500 
L 594 4494 
L 1172 4494 
z
" transform="scale(0.015625)"/>
      <path id="DejaVuSans-69" d="M 603 3500 
L 1178 3500 
L 1178 0 
L 603 0 
L 603 3500 
z
M 603 4863 
L 1178 4863 
L 1178 4134 
L 603 4134 
L 603 4863 
z
" transform="scale(0.015625)"/>
      <path id="DejaVuSans-6f" d="M 1959 3097 
Q 1497 3097 1228 2736 
Q 959 2375 959 1747 
Q 959 1119 1226 758 
Q 1494 397 1959 397 
Q 2419 397 2687 759 
Q 2956 1122 2956 1747 
Q 2956 2369 2687 2733 
Q 2419 3097 1959 3097 
z
M 1959 3584 
Q 2709 3584 3137 3096 
Q 3566 2609 3566 1747 
Q 3566 888 3137 398 
Q 2709 -91 1959 -91 
Q 1206 -91 779 398 
Q 353 888 353 1747 
Q 353 2609 779 3096 
Q 1206 3584 1959 3584 
z
" transform="scale(0.015625)"/>
     </defs>
     <use xlink:href="#DejaVuSans-46"/>
     <use xlink:href="#DejaVuSans-75" x="52.019531"/>
     <use xlink:href="#DejaVuSans-6e" x="115.398438"/>
     <use xlink:href="#DejaVuSans-63" x="178.777344"/>
     <use xlink:href="#DejaVuSans-74" x="233.757812"/>
     <use xlink:href="#DejaVuSans-69" x="272.966797"/>
     <use xlink:href="#DejaVuSans-6f" x="300.75"/>
     <use xlink:href="#DejaVuSans-6e" x="361.931641"/>
    </g>
   </g>
  </g>
 </g>
 <defs>
  <clipPath id="pd32ebf46a0">
   <rect x="42.620312" y="22.318125" width="111.6" height="110.88"/>
  </clipPath>
 </defs>
</svg>
