<?xml version="1.0" encoding="UTF-8" standalone="no"?>
<!DOCTYPE svg PUBLIC "-//W3C//DTD SVG 1.1//EN"
 "http://www.w3.org/Graphics/SVG/1.1/DTD/svg11.dtd">
<!-- Generated by graphviz version 12.0.0 (20240803.0821)
 -->
<!-- Title: model Pages: 1 -->
<svg width="431pt" height="1318pt"
 viewBox="0.00 0.00 430.75 1318.00" xmlns="http://www.w3.org/2000/svg" xmlns:xlink="http://www.w3.org/1999/xlink">
<g id="graph0" class="graph" transform="scale(0.768513 0.768513) rotate(0) translate(4 1711)">
<title>model</title>
<polygon fill="white" stroke="none" points="-4,4 -4,-1711 556.5,-1711 556.5,4 -4,4"/>
<!-- 0 -->
<g id="node1" class="node">
<title>0</title>
<polygon fill="lightyellow" stroke="none" points="343.38,-1707 208.62,-1707 208.62,-1671.5 343.38,-1671.5 343.38,-1707"/>
<polygon fill="none" stroke="black" points="208.62,-1671.5 208.62,-1707 277.88,-1707 277.88,-1671.5 208.62,-1671.5"/>
<text text-anchor="start" x="213.62" y="-1692.5" font-family="Linux libertine" font-size="10.00">input&#45;tensor</text>
<text text-anchor="start" x="224.88" y="-1679.75" font-family="Linux libertine" font-size="10.00">depth:0</text>
<polygon fill="none" stroke="black" points="277.88,-1671.5 277.88,-1707 343.38,-1707 343.38,-1671.5 277.88,-1671.5"/>
<text text-anchor="start" x="282.88" y="-1686.12" font-family="Linux libertine" font-size="10.00">(64, 28, 28)</text>
</g>
<!-- 1 -->
<g id="node2" class="node">
<title>1</title>
<polygon fill="#c1ffc1" stroke="none" points="356.5,-1635.5 195.5,-1635.5 195.5,-1591.5 356.5,-1591.5 356.5,-1635.5"/>
<polygon fill="none" stroke="black" points="195.5,-1591.5 195.5,-1635.5 241.5,-1635.5 241.5,-1591.5 195.5,-1591.5"/>
<text text-anchor="start" x="201.25" y="-1616.75" font-family="Linux libertine" font-size="10.00">Flatten</text>
<text text-anchor="start" x="200.12" y="-1604" font-family="Linux libertine" font-size="10.00">depth:2</text>
<polygon fill="none" stroke="black" points="241.5,-1613.5 241.5,-1635.5 288.5,-1635.5 288.5,-1613.5 241.5,-1613.5"/>
<text text-anchor="start" x="251.12" y="-1621" font-family="Linux libertine" font-size="10.00">input:</text>
<polygon fill="none" stroke="black" points="288.5,-1613.5 288.5,-1635.5 356.5,-1635.5 356.5,-1613.5 288.5,-1613.5"/>
<text text-anchor="start" x="293.25" y="-1621" font-family="Linux libertine" font-size="10.00">(64, 28, 28) </text>
<polygon fill="none" stroke="black" points="241.5,-1591.5 241.5,-1613.5 288.5,-1613.5 288.5,-1591.5 241.5,-1591.5"/>
<text text-anchor="start" x="246.25" y="-1599" font-family="Linux libertine" font-size="10.00">output: </text>
<polygon fill="none" stroke="black" points="288.5,-1591.5 288.5,-1613.5 356.5,-1613.5 356.5,-1591.5 288.5,-1591.5"/>
<text text-anchor="start" x="299.25" y="-1599" font-family="Linux libertine" font-size="10.00">(64, 784) </text>
</g>
<!-- 0&#45;&gt;1 -->
<g id="edge1" class="edge">
<title>0&#45;&gt;1</title>
<path fill="none" stroke="black" d="M276,-1671.51C276,-1664.15 276,-1655.24 276,-1646.68"/>
<polygon fill="black" stroke="black" points="279.5,-1646.9 276,-1636.9 272.5,-1646.9 279.5,-1646.9"/>
</g>
<!-- 2 -->
<g id="node3" class="node">
<title>2</title>
<polygon fill="#c1ffc1" stroke="none" points="350.5,-1555.5 201.5,-1555.5 201.5,-1511.5 350.5,-1511.5 350.5,-1555.5"/>
<polygon fill="none" stroke="black" points="201.5,-1511.5 201.5,-1555.5 247.5,-1555.5 247.5,-1511.5 201.5,-1511.5"/>
<text text-anchor="start" x="209.5" y="-1536.75" font-family="Linux libertine" font-size="10.00">Linear</text>
<text text-anchor="start" x="206.12" y="-1524" font-family="Linux libertine" font-size="10.00">depth:2</text>
<polygon fill="none" stroke="black" points="247.5,-1533.5 247.5,-1555.5 294.5,-1555.5 294.5,-1533.5 247.5,-1533.5"/>
<text text-anchor="start" x="257.12" y="-1541" font-family="Linux libertine" font-size="10.00">input:</text>
<polygon fill="none" stroke="black" points="294.5,-1533.5 294.5,-1555.5 350.5,-1555.5 350.5,-1533.5 294.5,-1533.5"/>
<text text-anchor="start" x="299.25" y="-1541" font-family="Linux libertine" font-size="10.00">(64, 784) </text>
<polygon fill="none" stroke="black" points="247.5,-1511.5 247.5,-1533.5 294.5,-1533.5 294.5,-1511.5 247.5,-1511.5"/>
<text text-anchor="start" x="252.25" y="-1519" font-family="Linux libertine" font-size="10.00">output: </text>
<polygon fill="none" stroke="black" points="294.5,-1511.5 294.5,-1533.5 350.5,-1533.5 350.5,-1511.5 294.5,-1511.5"/>
<text text-anchor="start" x="299.25" y="-1519" font-family="Linux libertine" font-size="10.00">(64, 128) </text>
</g>
<!-- 1&#45;&gt;2 -->
<g id="edge2" class="edge">
<title>1&#45;&gt;2</title>
<path fill="none" stroke="black" d="M276,-1591.6C276,-1583.99 276,-1575.2 276,-1566.84"/>
<polygon fill="black" stroke="black" points="279.5,-1566.97 276,-1556.97 272.5,-1566.97 279.5,-1566.97"/>
</g>
<!-- 3 -->
<g id="node4" class="node">
<title>3</title>
<polygon fill="#c1ffc1" stroke="none" points="350.5,-1475.5 201.5,-1475.5 201.5,-1431.5 350.5,-1431.5 350.5,-1475.5"/>
<polygon fill="none" stroke="black" points="201.5,-1431.5 201.5,-1475.5 247.5,-1475.5 247.5,-1431.5 201.5,-1431.5"/>
<text text-anchor="start" x="211.75" y="-1456.75" font-family="Linux libertine" font-size="10.00">ReLU</text>
<text text-anchor="start" x="206.12" y="-1444" font-family="Linux libertine" font-size="10.00">depth:2</text>
<polygon fill="none" stroke="black" points="247.5,-1453.5 247.5,-1475.5 294.5,-1475.5 294.5,-1453.5 247.5,-1453.5"/>
<text text-anchor="start" x="257.12" y="-1461" font-family="Linux libertine" font-size="10.00">input:</text>
<polygon fill="none" stroke="black" points="294.5,-1453.5 294.5,-1475.5 350.5,-1475.5 350.5,-1453.5 294.5,-1453.5"/>
<text text-anchor="start" x="299.25" y="-1461" font-family="Linux libertine" font-size="10.00">(64, 128) </text>
<polygon fill="none" stroke="black" points="247.5,-1431.5 247.5,-1453.5 294.5,-1453.5 294.5,-1431.5 247.5,-1431.5"/>
<text text-anchor="start" x="252.25" y="-1439" font-family="Linux libertine" font-size="10.00">output: </text>
<polygon fill="none" stroke="black" points="294.5,-1431.5 294.5,-1453.5 350.5,-1453.5 350.5,-1431.5 294.5,-1431.5"/>
<text text-anchor="start" x="299.25" y="-1439" font-family="Linux libertine" font-size="10.00">(64, 128) </text>
</g>
<!-- 2&#45;&gt;3 -->
<g id="edge3" class="edge">
<title>2&#45;&gt;3</title>
<path fill="none" stroke="black" d="M276,-1511.6C276,-1503.99 276,-1495.2 276,-1486.84"/>
<polygon fill="black" stroke="black" points="279.5,-1486.97 276,-1476.97 272.5,-1486.97 279.5,-1486.97"/>
</g>
<!-- 4 -->
<g id="node5" class="node">
<title>4</title>
<polygon fill="aliceblue" stroke="none" points="364.5,-1395.5 187.5,-1395.5 187.5,-1351.5 364.5,-1351.5 364.5,-1395.5"/>
<polygon fill="none" stroke="black" points="187.5,-1351.5 187.5,-1395.5 249.5,-1395.5 249.5,-1351.5 187.5,-1351.5"/>
<text text-anchor="start" x="192.25" y="-1376.75" font-family="Linux libertine" font-size="10.00">unsqueeze</text>
<text text-anchor="start" x="200.12" y="-1364" font-family="Linux libertine" font-size="10.00">depth:1</text>
<polygon fill="none" stroke="black" points="249.5,-1373.5 249.5,-1395.5 296.5,-1395.5 296.5,-1373.5 249.5,-1373.5"/>
<text text-anchor="start" x="259.12" y="-1381" font-family="Linux libertine" font-size="10.00">input:</text>
<polygon fill="none" stroke="black" points="296.5,-1373.5 296.5,-1395.5 364.5,-1395.5 364.5,-1373.5 296.5,-1373.5"/>
<text text-anchor="start" x="307.25" y="-1381" font-family="Linux libertine" font-size="10.00">(64, 128) </text>
<polygon fill="none" stroke="black" points="249.5,-1351.5 249.5,-1373.5 296.5,-1373.5 296.5,-1351.5 249.5,-1351.5"/>
<text text-anchor="start" x="254.25" y="-1359" font-family="Linux libertine" font-size="10.00">output: </text>
<polygon fill="none" stroke="black" points="296.5,-1351.5 296.5,-1373.5 364.5,-1373.5 364.5,-1351.5 296.5,-1351.5"/>
<text text-anchor="start" x="301.25" y="-1359" font-family="Linux libertine" font-size="10.00">(64, 1, 128) </text>
</g>
<!-- 3&#45;&gt;4 -->
<g id="edge4" class="edge">
<title>3&#45;&gt;4</title>
<path fill="none" stroke="black" d="M276,-1431.6C276,-1423.99 276,-1415.2 276,-1406.84"/>
<polygon fill="black" stroke="black" points="279.5,-1406.97 276,-1396.97 272.5,-1406.97 279.5,-1406.97"/>
</g>
<!-- 5 -->
<g id="node6" class="node">
<title>5</title>
<polygon fill="#c1ffc1" stroke="none" points="356.5,-1315.5 195.5,-1315.5 195.5,-1271.5 356.5,-1271.5 356.5,-1315.5"/>
<polygon fill="none" stroke="black" points="195.5,-1271.5 195.5,-1315.5 241.5,-1315.5 241.5,-1271.5 195.5,-1271.5"/>
<text text-anchor="start" x="203.5" y="-1296.75" font-family="Linux libertine" font-size="10.00">Linear</text>
<text text-anchor="start" x="200.12" y="-1284" font-family="Linux libertine" font-size="10.00">depth:2</text>
<polygon fill="none" stroke="black" points="241.5,-1293.5 241.5,-1315.5 288.5,-1315.5 288.5,-1293.5 241.5,-1293.5"/>
<text text-anchor="start" x="251.12" y="-1301" font-family="Linux libertine" font-size="10.00">input:</text>
<polygon fill="none" stroke="black" points="288.5,-1293.5 288.5,-1315.5 356.5,-1315.5 356.5,-1293.5 288.5,-1293.5"/>
<text text-anchor="start" x="293.25" y="-1301" font-family="Linux libertine" font-size="10.00">(64, 1, 128) </text>
<polygon fill="none" stroke="black" points="241.5,-1271.5 241.5,-1293.5 288.5,-1293.5 288.5,-1271.5 241.5,-1271.5"/>
<text text-anchor="start" x="246.25" y="-1279" font-family="Linux libertine" font-size="10.00">output: </text>
<polygon fill="none" stroke="black" points="288.5,-1271.5 288.5,-1293.5 356.5,-1293.5 356.5,-1271.5 288.5,-1271.5"/>
<text text-anchor="start" x="293.25" y="-1279" font-family="Linux libertine" font-size="10.00">(64, 1, 128) </text>
</g>
<!-- 4&#45;&gt;5 -->
<g id="edge5" class="edge">
<title>4&#45;&gt;5</title>
<path fill="none" stroke="black" d="M276,-1351.6C276,-1343.99 276,-1335.2 276,-1326.84"/>
<polygon fill="black" stroke="black" points="279.5,-1326.97 276,-1316.97 272.5,-1326.97 279.5,-1326.97"/>
</g>
<!-- 9 -->
<g id="node10" class="node">
<title>9</title>
<polygon fill="#c1ffc1" stroke="none" points="539.5,-1315.5 378.5,-1315.5 378.5,-1271.5 539.5,-1271.5 539.5,-1315.5"/>
<polygon fill="none" stroke="black" points="378.5,-1271.5 378.5,-1315.5 424.5,-1315.5 424.5,-1271.5 378.5,-1271.5"/>
<text text-anchor="start" x="386.5" y="-1296.75" font-family="Linux libertine" font-size="10.00">Linear</text>
<text text-anchor="start" x="383.12" y="-1284" font-family="Linux libertine" font-size="10.00">depth:2</text>
<polygon fill="none" stroke="black" points="424.5,-1293.5 424.5,-1315.5 471.5,-1315.5 471.5,-1293.5 424.5,-1293.5"/>
<text text-anchor="start" x="434.12" y="-1301" font-family="Linux libertine" font-size="10.00">input:</text>
<polygon fill="none" stroke="black" points="471.5,-1293.5 471.5,-1315.5 539.5,-1315.5 539.5,-1293.5 471.5,-1293.5"/>
<text text-anchor="start" x="476.25" y="-1301" font-family="Linux libertine" font-size="10.00">(64, 1, 128) </text>
<polygon fill="none" stroke="black" points="424.5,-1271.5 424.5,-1293.5 471.5,-1293.5 471.5,-1271.5 424.5,-1271.5"/>
<text text-anchor="start" x="429.25" y="-1279" font-family="Linux libertine" font-size="10.00">output: </text>
<polygon fill="none" stroke="black" points="471.5,-1271.5 471.5,-1293.5 539.5,-1293.5 539.5,-1271.5 471.5,-1271.5"/>
<text text-anchor="start" x="476.25" y="-1279" font-family="Linux libertine" font-size="10.00">(64, 1, 128) </text>
</g>
<!-- 4&#45;&gt;9 -->
<g id="edge6" class="edge">
<title>4&#45;&gt;9</title>
<path fill="none" stroke="black" d="M325.04,-1351.6C347.91,-1341.85 375.33,-1330.16 399.39,-1319.91"/>
<polygon fill="black" stroke="black" points="400.6,-1323.19 408.43,-1316.05 397.86,-1316.76 400.6,-1323.19"/>
</g>
<!-- 13 -->
<g id="node14" class="node">
<title>13</title>
<polygon fill="#c1ffc1" stroke="none" points="173.5,-1315.5 12.5,-1315.5 12.5,-1271.5 173.5,-1271.5 173.5,-1315.5"/>
<polygon fill="none" stroke="black" points="12.5,-1271.5 12.5,-1315.5 58.5,-1315.5 58.5,-1271.5 12.5,-1271.5"/>
<text text-anchor="start" x="20.5" y="-1296.75" font-family="Linux libertine" font-size="10.00">Linear</text>
<text text-anchor="start" x="17.12" y="-1284" font-family="Linux libertine" font-size="10.00">depth:2</text>
<polygon fill="none" stroke="black" points="58.5,-1293.5 58.5,-1315.5 105.5,-1315.5 105.5,-1293.5 58.5,-1293.5"/>
<text text-anchor="start" x="68.12" y="-1301" font-family="Linux libertine" font-size="10.00">input:</text>
<polygon fill="none" stroke="black" points="105.5,-1293.5 105.5,-1315.5 173.5,-1315.5 173.5,-1293.5 105.5,-1293.5"/>
<text text-anchor="start" x="110.25" y="-1301" font-family="Linux libertine" font-size="10.00">(64, 1, 128) </text>
<polygon fill="none" stroke="black" points="58.5,-1271.5 58.5,-1293.5 105.5,-1293.5 105.5,-1271.5 58.5,-1271.5"/>
<text text-anchor="start" x="63.25" y="-1279" font-family="Linux libertine" font-size="10.00">output: </text>
<polygon fill="none" stroke="black" points="105.5,-1271.5 105.5,-1293.5 173.5,-1293.5 173.5,-1271.5 105.5,-1271.5"/>
<text text-anchor="start" x="110.25" y="-1279" font-family="Linux libertine" font-size="10.00">(64, 1, 128) </text>
</g>
<!-- 4&#45;&gt;13 -->
<g id="edge7" class="edge">
<title>4&#45;&gt;13</title>
<path fill="none" stroke="black" d="M226.96,-1351.6C204.09,-1341.85 176.67,-1330.16 152.61,-1319.91"/>
<polygon fill="black" stroke="black" points="154.14,-1316.76 143.57,-1316.05 151.4,-1323.19 154.14,-1316.76"/>
</g>
<!-- 6 -->
<g id="node7" class="node">
<title>6</title>
<polygon fill="aliceblue" stroke="none" points="361,-1235.5 191,-1235.5 191,-1191.5 361,-1191.5 361,-1235.5"/>
<polygon fill="none" stroke="black" points="191,-1191.5 191,-1235.5 240,-1235.5 240,-1191.5 191,-1191.5"/>
<text text-anchor="start" x="196" y="-1216.75" font-family="Linux libertine" font-size="10.00">reshape</text>
<text text-anchor="start" x="197.12" y="-1204" font-family="Linux libertine" font-size="10.00">depth:2</text>
<polygon fill="none" stroke="black" points="240,-1213.5 240,-1235.5 287,-1235.5 287,-1213.5 240,-1213.5"/>
<text text-anchor="start" x="249.62" y="-1221" font-family="Linux libertine" font-size="10.00">input:</text>
<polygon fill="none" stroke="black" points="287,-1213.5 287,-1235.5 361,-1235.5 361,-1213.5 287,-1213.5"/>
<text text-anchor="start" x="294.75" y="-1221" font-family="Linux libertine" font-size="10.00">(64, 1, 128) </text>
<polygon fill="none" stroke="black" points="240,-1191.5 240,-1213.5 287,-1213.5 287,-1191.5 240,-1191.5"/>
<text text-anchor="start" x="244.75" y="-1199" font-family="Linux libertine" font-size="10.00">output: </text>
<polygon fill="none" stroke="black" points="287,-1191.5 287,-1213.5 361,-1213.5 361,-1191.5 287,-1191.5"/>
<text text-anchor="start" x="291.75" y="-1199" font-family="Linux libertine" font-size="10.00">(64, 1, 2, 64) </text>
</g>
<!-- 5&#45;&gt;6 -->
<g id="edge8" class="edge">
<title>5&#45;&gt;6</title>
<path fill="none" stroke="black" d="M276,-1271.6C276,-1263.99 276,-1255.2 276,-1246.84"/>
<polygon fill="black" stroke="black" points="279.5,-1246.97 276,-1236.97 272.5,-1246.97 279.5,-1246.97"/>
</g>
<!-- 7 -->
<g id="node8" class="node">
<title>7</title>
<polygon fill="aliceblue" stroke="none" points="362,-1155.5 190,-1155.5 190,-1111.5 362,-1111.5 362,-1155.5"/>
<polygon fill="none" stroke="black" points="190,-1111.5 190,-1155.5 241,-1155.5 241,-1111.5 190,-1111.5"/>
<text text-anchor="start" x="194.88" y="-1136.75" font-family="Linux libertine" font-size="10.00">permute</text>
<text text-anchor="start" x="197.12" y="-1124" font-family="Linux libertine" font-size="10.00">depth:2</text>
<polygon fill="none" stroke="black" points="241,-1133.5 241,-1155.5 288,-1155.5 288,-1133.5 241,-1133.5"/>
<text text-anchor="start" x="250.62" y="-1141" font-family="Linux libertine" font-size="10.00">input:</text>
<polygon fill="none" stroke="black" points="288,-1133.5 288,-1155.5 362,-1155.5 362,-1133.5 288,-1133.5"/>
<text text-anchor="start" x="292.75" y="-1141" font-family="Linux libertine" font-size="10.00">(64, 1, 2, 64) </text>
<polygon fill="none" stroke="black" points="241,-1111.5 241,-1133.5 288,-1133.5 288,-1111.5 241,-1111.5"/>
<text text-anchor="start" x="245.75" y="-1119" font-family="Linux libertine" font-size="10.00">output: </text>
<polygon fill="none" stroke="black" points="288,-1111.5 288,-1133.5 362,-1133.5 362,-1111.5 288,-1111.5"/>
<text text-anchor="start" x="292.75" y="-1119" font-family="Linux libertine" font-size="10.00">(64, 2, 1, 64) </text>
</g>
<!-- 6&#45;&gt;7 -->
<g id="edge9" class="edge">
<title>6&#45;&gt;7</title>
<path fill="none" stroke="black" d="M276,-1191.6C276,-1183.99 276,-1175.2 276,-1166.84"/>
<polygon fill="black" stroke="black" points="279.5,-1166.97 276,-1156.97 272.5,-1166.97 279.5,-1166.97"/>
</g>
<!-- 8 -->
<g id="node9" class="node">
<title>8</title>
<polygon fill="aliceblue" stroke="none" points="361,-995.5 191,-995.5 191,-951.5 361,-951.5 361,-995.5"/>
<polygon fill="none" stroke="black" points="191,-951.5 191,-995.5 240,-995.5 240,-951.5 191,-951.5"/>
<text text-anchor="start" x="196" y="-976.75" font-family="Linux libertine" font-size="10.00">reshape</text>
<text text-anchor="start" x="197.12" y="-964" font-family="Linux libertine" font-size="10.00">depth:2</text>
<polygon fill="none" stroke="black" points="240,-973.5 240,-995.5 287,-995.5 287,-973.5 240,-973.5"/>
<text text-anchor="start" x="249.62" y="-981" font-family="Linux libertine" font-size="10.00">input:</text>
<polygon fill="none" stroke="black" points="287,-973.5 287,-995.5 361,-995.5 361,-973.5 287,-973.5"/>
<text text-anchor="start" x="291.75" y="-981" font-family="Linux libertine" font-size="10.00">(64, 2, 1, 64) </text>
<polygon fill="none" stroke="black" points="240,-951.5 240,-973.5 287,-973.5 287,-951.5 240,-951.5"/>
<text text-anchor="start" x="244.75" y="-959" font-family="Linux libertine" font-size="10.00">output: </text>
<polygon fill="none" stroke="black" points="287,-951.5 287,-973.5 361,-973.5 361,-951.5 287,-951.5"/>
<text text-anchor="start" x="294.75" y="-959" font-family="Linux libertine" font-size="10.00">(128, 1, 64) </text>
</g>
<!-- 7&#45;&gt;8 -->
<g id="edge10" class="edge">
<title>7&#45;&gt;8</title>
<path fill="none" stroke="black" d="M276,-1111.52C276,-1084.57 276,-1037.56 276,-1006.23"/>
<polygon fill="black" stroke="black" points="279.5,-1006.58 276,-996.58 272.5,-1006.58 279.5,-1006.58"/>
</g>
<!-- 18 -->
<g id="node19" class="node">
<title>18</title>
<polygon fill="aliceblue" stroke="none" points="412.5,-915.5 189.5,-915.5 189.5,-871.5 412.5,-871.5 412.5,-915.5"/>
<polygon fill="none" stroke="black" points="189.5,-871.5 189.5,-915.5 235.5,-915.5 235.5,-871.5 189.5,-871.5"/>
<text text-anchor="start" x="199.75" y="-896.75" font-family="Linux libertine" font-size="10.00">bmm</text>
<text text-anchor="start" x="194.12" y="-884" font-family="Linux libertine" font-size="10.00">depth:3</text>
<polygon fill="none" stroke="black" points="235.5,-893.5 235.5,-915.5 282.5,-915.5 282.5,-893.5 235.5,-893.5"/>
<text text-anchor="start" x="245.12" y="-901" font-family="Linux libertine" font-size="10.00">input:</text>
<polygon fill="none" stroke="black" points="282.5,-893.5 282.5,-915.5 412.5,-915.5 412.5,-893.5 282.5,-893.5"/>
<text text-anchor="start" x="287.5" y="-901" font-family="Linux libertine" font-size="10.00">(128, 1, 64), (128, 64, 1) </text>
<polygon fill="none" stroke="black" points="235.5,-871.5 235.5,-893.5 282.5,-893.5 282.5,-871.5 235.5,-871.5"/>
<text text-anchor="start" x="240.25" y="-879" font-family="Linux libertine" font-size="10.00">output: </text>
<polygon fill="none" stroke="black" points="282.5,-871.5 282.5,-893.5 412.5,-893.5 412.5,-871.5 282.5,-871.5"/>
<text text-anchor="start" x="321.25" y="-879" font-family="Linux libertine" font-size="10.00">(128, 1, 1) </text>
</g>
<!-- 8&#45;&gt;18 -->
<g id="edge17" class="edge">
<title>8&#45;&gt;18</title>
<path fill="none" stroke="black" d="M282.7,-951.6C285.19,-943.82 288.08,-934.8 290.82,-926.26"/>
<polygon fill="black" stroke="black" points="294.1,-927.49 293.82,-916.9 287.43,-925.36 294.1,-927.49"/>
</g>
<!-- 10 -->
<g id="node11" class="node">
<title>10</title>
<polygon fill="aliceblue" stroke="none" points="550,-1235.5 380,-1235.5 380,-1191.5 550,-1191.5 550,-1235.5"/>
<polygon fill="none" stroke="black" points="380,-1191.5 380,-1235.5 429,-1235.5 429,-1191.5 380,-1191.5"/>
<text text-anchor="start" x="385" y="-1216.75" font-family="Linux libertine" font-size="10.00">reshape</text>
<text text-anchor="start" x="386.12" y="-1204" font-family="Linux libertine" font-size="10.00">depth:2</text>
<polygon fill="none" stroke="black" points="429,-1213.5 429,-1235.5 476,-1235.5 476,-1213.5 429,-1213.5"/>
<text text-anchor="start" x="438.62" y="-1221" font-family="Linux libertine" font-size="10.00">input:</text>
<polygon fill="none" stroke="black" points="476,-1213.5 476,-1235.5 550,-1235.5 550,-1213.5 476,-1213.5"/>
<text text-anchor="start" x="483.75" y="-1221" font-family="Linux libertine" font-size="10.00">(64, 1, 128) </text>
<polygon fill="none" stroke="black" points="429,-1191.5 429,-1213.5 476,-1213.5 476,-1191.5 429,-1191.5"/>
<text text-anchor="start" x="433.75" y="-1199" font-family="Linux libertine" font-size="10.00">output: </text>
<polygon fill="none" stroke="black" points="476,-1191.5 476,-1213.5 550,-1213.5 550,-1191.5 476,-1191.5"/>
<text text-anchor="start" x="480.75" y="-1199" font-family="Linux libertine" font-size="10.00">(64, 1, 2, 64) </text>
</g>
<!-- 9&#45;&gt;10 -->
<g id="edge11" class="edge">
<title>9&#45;&gt;10</title>
<path fill="none" stroke="black" d="M460.61,-1271.6C461.19,-1263.99 461.87,-1255.2 462.51,-1246.84"/>
<polygon fill="black" stroke="black" points="465.99,-1247.21 463.27,-1236.97 459.01,-1246.67 465.99,-1247.21"/>
</g>
<!-- 11 -->
<g id="node12" class="node">
<title>11</title>
<polygon fill="aliceblue" stroke="none" points="552,-1155.5 380,-1155.5 380,-1111.5 552,-1111.5 552,-1155.5"/>
<polygon fill="none" stroke="black" points="380,-1111.5 380,-1155.5 431,-1155.5 431,-1111.5 380,-1111.5"/>
<text text-anchor="start" x="384.88" y="-1136.75" font-family="Linux libertine" font-size="10.00">permute</text>
<text text-anchor="start" x="387.12" y="-1124" font-family="Linux libertine" font-size="10.00">depth:2</text>
<polygon fill="none" stroke="black" points="431,-1133.5 431,-1155.5 478,-1155.5 478,-1133.5 431,-1133.5"/>
<text text-anchor="start" x="440.62" y="-1141" font-family="Linux libertine" font-size="10.00">input:</text>
<polygon fill="none" stroke="black" points="478,-1133.5 478,-1155.5 552,-1155.5 552,-1133.5 478,-1133.5"/>
<text text-anchor="start" x="482.75" y="-1141" font-family="Linux libertine" font-size="10.00">(64, 1, 2, 64) </text>
<polygon fill="none" stroke="black" points="431,-1111.5 431,-1133.5 478,-1133.5 478,-1111.5 431,-1111.5"/>
<text text-anchor="start" x="435.75" y="-1119" font-family="Linux libertine" font-size="10.00">output: </text>
<polygon fill="none" stroke="black" points="478,-1111.5 478,-1133.5 552,-1133.5 552,-1111.5 478,-1111.5"/>
<text text-anchor="start" x="482.75" y="-1119" font-family="Linux libertine" font-size="10.00">(64, 2, 1, 64) </text>
</g>
<!-- 10&#45;&gt;11 -->
<g id="edge12" class="edge">
<title>10&#45;&gt;11</title>
<path fill="none" stroke="black" d="M465.27,-1191.6C465.37,-1183.99 465.48,-1175.2 465.59,-1166.84"/>
<polygon fill="black" stroke="black" points="469.08,-1167.02 465.71,-1156.97 462.08,-1166.93 469.08,-1167.02"/>
</g>
<!-- 12 -->
<g id="node13" class="node">
<title>12</title>
<polygon fill="aliceblue" stroke="none" points="551,-1075.5 381,-1075.5 381,-1031.5 551,-1031.5 551,-1075.5"/>
<polygon fill="none" stroke="black" points="381,-1031.5 381,-1075.5 430,-1075.5 430,-1031.5 381,-1031.5"/>
<text text-anchor="start" x="386" y="-1056.75" font-family="Linux libertine" font-size="10.00">reshape</text>
<text text-anchor="start" x="387.12" y="-1044" font-family="Linux libertine" font-size="10.00">depth:2</text>
<polygon fill="none" stroke="black" points="430,-1053.5 430,-1075.5 477,-1075.5 477,-1053.5 430,-1053.5"/>
<text text-anchor="start" x="439.62" y="-1061" font-family="Linux libertine" font-size="10.00">input:</text>
<polygon fill="none" stroke="black" points="477,-1053.5 477,-1075.5 551,-1075.5 551,-1053.5 477,-1053.5"/>
<text text-anchor="start" x="481.75" y="-1061" font-family="Linux libertine" font-size="10.00">(64, 2, 1, 64) </text>
<polygon fill="none" stroke="black" points="430,-1031.5 430,-1053.5 477,-1053.5 477,-1031.5 430,-1031.5"/>
<text text-anchor="start" x="434.75" y="-1039" font-family="Linux libertine" font-size="10.00">output: </text>
<polygon fill="none" stroke="black" points="477,-1031.5 477,-1053.5 551,-1053.5 551,-1031.5 477,-1031.5"/>
<text text-anchor="start" x="484.75" y="-1039" font-family="Linux libertine" font-size="10.00">(128, 1, 64) </text>
</g>
<!-- 11&#45;&gt;12 -->
<g id="edge13" class="edge">
<title>11&#45;&gt;12</title>
<path fill="none" stroke="black" d="M466,-1111.6C466,-1103.99 466,-1095.2 466,-1086.84"/>
<polygon fill="black" stroke="black" points="469.5,-1086.97 466,-1076.97 462.5,-1086.97 469.5,-1086.97"/>
</g>
<!-- 17 -->
<g id="node18" class="node">
<title>17</title>
<polygon fill="aliceblue" stroke="none" points="552.5,-995.5 379.5,-995.5 379.5,-951.5 552.5,-951.5 552.5,-995.5"/>
<polygon fill="none" stroke="black" points="379.5,-951.5 379.5,-995.5 437.5,-995.5 437.5,-951.5 379.5,-951.5"/>
<text text-anchor="start" x="384.5" y="-976.75" font-family="Linux libertine" font-size="10.00">transpose</text>
<text text-anchor="start" x="390.12" y="-964" font-family="Linux libertine" font-size="10.00">depth:3</text>
<polygon fill="none" stroke="black" points="437.5,-973.5 437.5,-995.5 484.5,-995.5 484.5,-973.5 437.5,-973.5"/>
<text text-anchor="start" x="447.12" y="-981" font-family="Linux libertine" font-size="10.00">input:</text>
<polygon fill="none" stroke="black" points="484.5,-973.5 484.5,-995.5 552.5,-995.5 552.5,-973.5 484.5,-973.5"/>
<text text-anchor="start" x="489.25" y="-981" font-family="Linux libertine" font-size="10.00">(128, 1, 64) </text>
<polygon fill="none" stroke="black" points="437.5,-951.5 437.5,-973.5 484.5,-973.5 484.5,-951.5 437.5,-951.5"/>
<text text-anchor="start" x="442.25" y="-959" font-family="Linux libertine" font-size="10.00">output: </text>
<polygon fill="none" stroke="black" points="484.5,-951.5 484.5,-973.5 552.5,-973.5 552.5,-951.5 484.5,-951.5"/>
<text text-anchor="start" x="489.25" y="-959" font-family="Linux libertine" font-size="10.00">(128, 64, 1) </text>
</g>
<!-- 12&#45;&gt;17 -->
<g id="edge18" class="edge">
<title>12&#45;&gt;17</title>
<path fill="none" stroke="black" d="M466,-1031.6C466,-1023.99 466,-1015.2 466,-1006.84"/>
<polygon fill="black" stroke="black" points="469.5,-1006.97 466,-996.97 462.5,-1006.97 469.5,-1006.97"/>
</g>
<!-- 14 -->
<g id="node15" class="node">
<title>14</title>
<polygon fill="aliceblue" stroke="none" points="172,-1235.5 2,-1235.5 2,-1191.5 172,-1191.5 172,-1235.5"/>
<polygon fill="none" stroke="black" points="2,-1191.5 2,-1235.5 51,-1235.5 51,-1191.5 2,-1191.5"/>
<text text-anchor="start" x="7" y="-1216.75" font-family="Linux libertine" font-size="10.00">reshape</text>
<text text-anchor="start" x="8.12" y="-1204" font-family="Linux libertine" font-size="10.00">depth:2</text>
<polygon fill="none" stroke="black" points="51,-1213.5 51,-1235.5 98,-1235.5 98,-1213.5 51,-1213.5"/>
<text text-anchor="start" x="60.62" y="-1221" font-family="Linux libertine" font-size="10.00">input:</text>
<polygon fill="none" stroke="black" points="98,-1213.5 98,-1235.5 172,-1235.5 172,-1213.5 98,-1213.5"/>
<text text-anchor="start" x="105.75" y="-1221" font-family="Linux libertine" font-size="10.00">(64, 1, 128) </text>
<polygon fill="none" stroke="black" points="51,-1191.5 51,-1213.5 98,-1213.5 98,-1191.5 51,-1191.5"/>
<text text-anchor="start" x="55.75" y="-1199" font-family="Linux libertine" font-size="10.00">output: </text>
<polygon fill="none" stroke="black" points="98,-1191.5 98,-1213.5 172,-1213.5 172,-1191.5 98,-1191.5"/>
<text text-anchor="start" x="102.75" y="-1199" font-family="Linux libertine" font-size="10.00">(64, 1, 2, 64) </text>
</g>
<!-- 13&#45;&gt;14 -->
<g id="edge14" class="edge">
<title>13&#45;&gt;14</title>
<path fill="none" stroke="black" d="M91.39,-1271.6C90.81,-1263.99 90.13,-1255.2 89.49,-1246.84"/>
<polygon fill="black" stroke="black" points="92.99,-1246.67 88.73,-1236.97 86.01,-1247.21 92.99,-1246.67"/>
</g>
<!-- 15 -->
<g id="node16" class="node">
<title>15</title>
<polygon fill="aliceblue" stroke="none" points="172,-1155.5 0,-1155.5 0,-1111.5 172,-1111.5 172,-1155.5"/>
<polygon fill="none" stroke="black" points="0,-1111.5 0,-1155.5 51,-1155.5 51,-1111.5 0,-1111.5"/>
<text text-anchor="start" x="4.88" y="-1136.75" font-family="Linux libertine" font-size="10.00">permute</text>
<text text-anchor="start" x="7.12" y="-1124" font-family="Linux libertine" font-size="10.00">depth:2</text>
<polygon fill="none" stroke="black" points="51,-1133.5 51,-1155.5 98,-1155.5 98,-1133.5 51,-1133.5"/>
<text text-anchor="start" x="60.62" y="-1141" font-family="Linux libertine" font-size="10.00">input:</text>
<polygon fill="none" stroke="black" points="98,-1133.5 98,-1155.5 172,-1155.5 172,-1133.5 98,-1133.5"/>
<text text-anchor="start" x="102.75" y="-1141" font-family="Linux libertine" font-size="10.00">(64, 1, 2, 64) </text>
<polygon fill="none" stroke="black" points="51,-1111.5 51,-1133.5 98,-1133.5 98,-1111.5 51,-1111.5"/>
<text text-anchor="start" x="55.75" y="-1119" font-family="Linux libertine" font-size="10.00">output: </text>
<polygon fill="none" stroke="black" points="98,-1111.5 98,-1133.5 172,-1133.5 172,-1111.5 98,-1111.5"/>
<text text-anchor="start" x="102.75" y="-1119" font-family="Linux libertine" font-size="10.00">(64, 2, 1, 64) </text>
</g>
<!-- 14&#45;&gt;15 -->
<g id="edge15" class="edge">
<title>14&#45;&gt;15</title>
<path fill="none" stroke="black" d="M86.73,-1191.6C86.63,-1183.99 86.52,-1175.2 86.41,-1166.84"/>
<polygon fill="black" stroke="black" points="89.92,-1166.93 86.29,-1156.97 82.92,-1167.02 89.92,-1166.93"/>
</g>
<!-- 16 -->
<g id="node17" class="node">
<title>16</title>
<polygon fill="aliceblue" stroke="none" points="171,-915.5 1,-915.5 1,-871.5 171,-871.5 171,-915.5"/>
<polygon fill="none" stroke="black" points="1,-871.5 1,-915.5 50,-915.5 50,-871.5 1,-871.5"/>
<text text-anchor="start" x="6" y="-896.75" font-family="Linux libertine" font-size="10.00">reshape</text>
<text text-anchor="start" x="7.12" y="-884" font-family="Linux libertine" font-size="10.00">depth:2</text>
<polygon fill="none" stroke="black" points="50,-893.5 50,-915.5 97,-915.5 97,-893.5 50,-893.5"/>
<text text-anchor="start" x="59.62" y="-901" font-family="Linux libertine" font-size="10.00">input:</text>
<polygon fill="none" stroke="black" points="97,-893.5 97,-915.5 171,-915.5 171,-893.5 97,-893.5"/>
<text text-anchor="start" x="101.75" y="-901" font-family="Linux libertine" font-size="10.00">(64, 2, 1, 64) </text>
<polygon fill="none" stroke="black" points="50,-871.5 50,-893.5 97,-893.5 97,-871.5 50,-871.5"/>
<text text-anchor="start" x="54.75" y="-879" font-family="Linux libertine" font-size="10.00">output: </text>
<polygon fill="none" stroke="black" points="97,-871.5 97,-893.5 171,-893.5 171,-871.5 97,-871.5"/>
<text text-anchor="start" x="104.75" y="-879" font-family="Linux libertine" font-size="10.00">(128, 1, 64) </text>
</g>
<!-- 15&#45;&gt;16 -->
<g id="edge16" class="edge">
<title>15&#45;&gt;16</title>
<path fill="none" stroke="black" d="M86,-1111.8C86,-1070.21 86,-976.29 86,-926.65"/>
<polygon fill="black" stroke="black" points="89.5,-926.84 86,-916.84 82.5,-926.84 89.5,-926.84"/>
</g>
<!-- 22 -->
<g id="node23" class="node">
<title>22</title>
<polygon fill="aliceblue" stroke="none" points="301.5,-595.5 84.5,-595.5 84.5,-551.5 301.5,-551.5 301.5,-595.5"/>
<polygon fill="none" stroke="black" points="84.5,-551.5 84.5,-595.5 130.5,-595.5 130.5,-551.5 84.5,-551.5"/>
<text text-anchor="start" x="94.75" y="-576.75" font-family="Linux libertine" font-size="10.00">bmm</text>
<text text-anchor="start" x="89.12" y="-564" font-family="Linux libertine" font-size="10.00">depth:3</text>
<polygon fill="none" stroke="black" points="130.5,-573.5 130.5,-595.5 177.5,-595.5 177.5,-573.5 130.5,-573.5"/>
<text text-anchor="start" x="140.12" y="-581" font-family="Linux libertine" font-size="10.00">input:</text>
<polygon fill="none" stroke="black" points="177.5,-573.5 177.5,-595.5 301.5,-595.5 301.5,-573.5 177.5,-573.5"/>
<text text-anchor="start" x="182.5" y="-581" font-family="Linux libertine" font-size="10.00">(128, 1, 1), (128, 1, 64) </text>
<polygon fill="none" stroke="black" points="130.5,-551.5 130.5,-573.5 177.5,-573.5 177.5,-551.5 130.5,-551.5"/>
<text text-anchor="start" x="135.25" y="-559" font-family="Linux libertine" font-size="10.00">output: </text>
<polygon fill="none" stroke="black" points="177.5,-551.5 177.5,-573.5 301.5,-573.5 301.5,-551.5 177.5,-551.5"/>
<text text-anchor="start" x="210.25" y="-559" font-family="Linux libertine" font-size="10.00">(128, 1, 64) </text>
</g>
<!-- 16&#45;&gt;22 -->
<g id="edge19" class="edge">
<title>16&#45;&gt;22</title>
<path fill="none" stroke="black" d="M93.02,-871.64C111.31,-817.28 160.51,-671.04 182.33,-606.2"/>
<polygon fill="black" stroke="black" points="185.6,-607.47 185.47,-596.88 178.96,-605.24 185.6,-607.47"/>
</g>
<!-- 17&#45;&gt;18 -->
<g id="edge20" class="edge">
<title>17&#45;&gt;18</title>
<path fill="none" stroke="black" d="M421.78,-951.6C401.44,-941.98 377.1,-930.48 355.62,-920.32"/>
<polygon fill="black" stroke="black" points="357.24,-917.22 346.71,-916.11 354.25,-923.55 357.24,-917.22"/>
</g>
<!-- 19 -->
<g id="node20" class="node">
<title>19</title>
<polygon fill="aliceblue" stroke="none" points="371.5,-835.5 216.5,-835.5 216.5,-791.5 371.5,-791.5 371.5,-835.5"/>
<polygon fill="none" stroke="black" points="216.5,-791.5 216.5,-835.5 262.5,-835.5 262.5,-791.5 216.5,-791.5"/>
<text text-anchor="start" x="232" y="-816.75" font-family="Linux libertine" font-size="10.00">div</text>
<text text-anchor="start" x="221.12" y="-804" font-family="Linux libertine" font-size="10.00">depth:3</text>
<polygon fill="none" stroke="black" points="262.5,-813.5 262.5,-835.5 309.5,-835.5 309.5,-813.5 262.5,-813.5"/>
<text text-anchor="start" x="272.12" y="-821" font-family="Linux libertine" font-size="10.00">input:</text>
<polygon fill="none" stroke="black" points="309.5,-813.5 309.5,-835.5 371.5,-835.5 371.5,-813.5 309.5,-813.5"/>
<text text-anchor="start" x="314.25" y="-821" font-family="Linux libertine" font-size="10.00">(128, 1, 1) </text>
<polygon fill="none" stroke="black" points="262.5,-791.5 262.5,-813.5 309.5,-813.5 309.5,-791.5 262.5,-791.5"/>
<text text-anchor="start" x="267.25" y="-799" font-family="Linux libertine" font-size="10.00">output: </text>
<polygon fill="none" stroke="black" points="309.5,-791.5 309.5,-813.5 371.5,-813.5 371.5,-791.5 309.5,-791.5"/>
<text text-anchor="start" x="314.25" y="-799" font-family="Linux libertine" font-size="10.00">(128, 1, 1) </text>
</g>
<!-- 18&#45;&gt;19 -->
<g id="edge21" class="edge">
<title>18&#45;&gt;19</title>
<path fill="none" stroke="black" d="M299.12,-871.6C298.44,-863.99 297.65,-855.2 296.9,-846.84"/>
<polygon fill="black" stroke="black" points="300.4,-846.61 296.02,-836.97 293.42,-847.24 300.4,-846.61"/>
</g>
<!-- 20 -->
<g id="node21" class="node">
<title>20</title>
<polygon fill="aliceblue" stroke="none" points="366,-755.5 208,-755.5 208,-711.5 366,-711.5 366,-755.5"/>
<polygon fill="none" stroke="black" points="208,-711.5 208,-755.5 257,-755.5 257,-711.5 208,-711.5"/>
<text text-anchor="start" x="212.62" y="-736.75" font-family="Linux libertine" font-size="10.00">softmax</text>
<text text-anchor="start" x="214.12" y="-724" font-family="Linux libertine" font-size="10.00">depth:3</text>
<polygon fill="none" stroke="black" points="257,-733.5 257,-755.5 304,-755.5 304,-733.5 257,-733.5"/>
<text text-anchor="start" x="266.62" y="-741" font-family="Linux libertine" font-size="10.00">input:</text>
<polygon fill="none" stroke="black" points="304,-733.5 304,-755.5 366,-755.5 366,-733.5 304,-733.5"/>
<text text-anchor="start" x="308.75" y="-741" font-family="Linux libertine" font-size="10.00">(128, 1, 1) </text>
<polygon fill="none" stroke="black" points="257,-711.5 257,-733.5 304,-733.5 304,-711.5 257,-711.5"/>
<text text-anchor="start" x="261.75" y="-719" font-family="Linux libertine" font-size="10.00">output: </text>
<polygon fill="none" stroke="black" points="304,-711.5 304,-733.5 366,-733.5 366,-711.5 304,-711.5"/>
<text text-anchor="start" x="308.75" y="-719" font-family="Linux libertine" font-size="10.00">(128, 1, 1) </text>
</g>
<!-- 19&#45;&gt;20 -->
<g id="edge22" class="edge">
<title>19&#45;&gt;20</title>
<path fill="none" stroke="black" d="M292.12,-791.6C291.44,-783.99 290.65,-775.2 289.9,-766.84"/>
<polygon fill="black" stroke="black" points="293.4,-766.61 289.02,-756.97 286.42,-767.24 293.4,-766.61"/>
</g>
<!-- 21 -->
<g id="node22" class="node">
<title>21</title>
<polygon fill="#c1ffc1" stroke="none" points="353,-675.5 195,-675.5 195,-631.5 353,-631.5 353,-675.5"/>
<polygon fill="none" stroke="black" points="195,-631.5 195,-675.5 244,-675.5 244,-631.5 195,-631.5"/>
<text text-anchor="start" x="200" y="-656.75" font-family="Linux libertine" font-size="10.00">Dropout</text>
<text text-anchor="start" x="201.12" y="-644" font-family="Linux libertine" font-size="10.00">depth:3</text>
<polygon fill="none" stroke="black" points="244,-653.5 244,-675.5 291,-675.5 291,-653.5 244,-653.5"/>
<text text-anchor="start" x="253.62" y="-661" font-family="Linux libertine" font-size="10.00">input:</text>
<polygon fill="none" stroke="black" points="291,-653.5 291,-675.5 353,-675.5 353,-653.5 291,-653.5"/>
<text text-anchor="start" x="295.75" y="-661" font-family="Linux libertine" font-size="10.00">(128, 1, 1) </text>
<polygon fill="none" stroke="black" points="244,-631.5 244,-653.5 291,-653.5 291,-631.5 244,-631.5"/>
<text text-anchor="start" x="248.75" y="-639" font-family="Linux libertine" font-size="10.00">output: </text>
<polygon fill="none" stroke="black" points="291,-631.5 291,-653.5 353,-653.5 353,-631.5 291,-631.5"/>
<text text-anchor="start" x="295.75" y="-639" font-family="Linux libertine" font-size="10.00">(128, 1, 1) </text>
</g>
<!-- 20&#45;&gt;21 -->
<g id="edge23" class="edge">
<title>20&#45;&gt;21</title>
<path fill="none" stroke="black" d="M283.52,-711.6C282.23,-703.9 280.75,-695 279.34,-686.55"/>
<polygon fill="black" stroke="black" points="282.84,-686.24 277.74,-676.95 275.93,-687.39 282.84,-686.24"/>
</g>
<!-- 21&#45;&gt;22 -->
<g id="edge24" class="edge">
<title>21&#45;&gt;22</title>
<path fill="none" stroke="black" d="M252.29,-631.6C243.3,-622.94 232.73,-612.76 223.02,-603.41"/>
<polygon fill="black" stroke="black" points="225.49,-600.93 215.86,-596.51 220.63,-605.97 225.49,-600.93"/>
</g>
<!-- 23 -->
<g id="node24" class="node">
<title>23</title>
<polygon fill="aliceblue" stroke="none" points="278,-515.5 108,-515.5 108,-471.5 278,-471.5 278,-515.5"/>
<polygon fill="none" stroke="black" points="108,-471.5 108,-515.5 157,-515.5 157,-471.5 108,-471.5"/>
<text text-anchor="start" x="113" y="-496.75" font-family="Linux libertine" font-size="10.00">reshape</text>
<text text-anchor="start" x="114.12" y="-484" font-family="Linux libertine" font-size="10.00">depth:2</text>
<polygon fill="none" stroke="black" points="157,-493.5 157,-515.5 204,-515.5 204,-493.5 157,-493.5"/>
<text text-anchor="start" x="166.62" y="-501" font-family="Linux libertine" font-size="10.00">input:</text>
<polygon fill="none" stroke="black" points="204,-493.5 204,-515.5 278,-515.5 278,-493.5 204,-493.5"/>
<text text-anchor="start" x="211.75" y="-501" font-family="Linux libertine" font-size="10.00">(128, 1, 64) </text>
<polygon fill="none" stroke="black" points="157,-471.5 157,-493.5 204,-493.5 204,-471.5 157,-471.5"/>
<text text-anchor="start" x="161.75" y="-479" font-family="Linux libertine" font-size="10.00">output: </text>
<polygon fill="none" stroke="black" points="204,-471.5 204,-493.5 278,-493.5 278,-471.5 204,-471.5"/>
<text text-anchor="start" x="208.75" y="-479" font-family="Linux libertine" font-size="10.00">(64, 2, 1, 64) </text>
</g>
<!-- 22&#45;&gt;23 -->
<g id="edge25" class="edge">
<title>22&#45;&gt;23</title>
<path fill="none" stroke="black" d="M193,-551.6C193,-543.99 193,-535.2 193,-526.84"/>
<polygon fill="black" stroke="black" points="196.5,-526.97 193,-516.97 189.5,-526.97 196.5,-526.97"/>
</g>
<!-- 24 -->
<g id="node25" class="node">
<title>24</title>
<polygon fill="aliceblue" stroke="none" points="279,-435.5 107,-435.5 107,-391.5 279,-391.5 279,-435.5"/>
<polygon fill="none" stroke="black" points="107,-391.5 107,-435.5 158,-435.5 158,-391.5 107,-391.5"/>
<text text-anchor="start" x="111.88" y="-416.75" font-family="Linux libertine" font-size="10.00">permute</text>
<text text-anchor="start" x="114.12" y="-404" font-family="Linux libertine" font-size="10.00">depth:2</text>
<polygon fill="none" stroke="black" points="158,-413.5 158,-435.5 205,-435.5 205,-413.5 158,-413.5"/>
<text text-anchor="start" x="167.62" y="-421" font-family="Linux libertine" font-size="10.00">input:</text>
<polygon fill="none" stroke="black" points="205,-413.5 205,-435.5 279,-435.5 279,-413.5 205,-413.5"/>
<text text-anchor="start" x="209.75" y="-421" font-family="Linux libertine" font-size="10.00">(64, 2, 1, 64) </text>
<polygon fill="none" stroke="black" points="158,-391.5 158,-413.5 205,-413.5 205,-391.5 158,-391.5"/>
<text text-anchor="start" x="162.75" y="-399" font-family="Linux libertine" font-size="10.00">output: </text>
<polygon fill="none" stroke="black" points="205,-391.5 205,-413.5 279,-413.5 279,-391.5 205,-391.5"/>
<text text-anchor="start" x="209.75" y="-399" font-family="Linux libertine" font-size="10.00">(64, 1, 2, 64) </text>
</g>
<!-- 23&#45;&gt;24 -->
<g id="edge26" class="edge">
<title>23&#45;&gt;24</title>
<path fill="none" stroke="black" d="M193,-471.6C193,-463.99 193,-455.2 193,-446.84"/>
<polygon fill="black" stroke="black" points="196.5,-446.97 193,-436.97 189.5,-446.97 196.5,-446.97"/>
</g>
<!-- 25 -->
<g id="node26" class="node">
<title>25</title>
<polygon fill="aliceblue" stroke="none" points="278,-355.5 108,-355.5 108,-311.5 278,-311.5 278,-355.5"/>
<polygon fill="none" stroke="black" points="108,-311.5 108,-355.5 157,-355.5 157,-311.5 108,-311.5"/>
<text text-anchor="start" x="113" y="-336.75" font-family="Linux libertine" font-size="10.00">reshape</text>
<text text-anchor="start" x="114.12" y="-324" font-family="Linux libertine" font-size="10.00">depth:2</text>
<polygon fill="none" stroke="black" points="157,-333.5 157,-355.5 204,-355.5 204,-333.5 157,-333.5"/>
<text text-anchor="start" x="166.62" y="-341" font-family="Linux libertine" font-size="10.00">input:</text>
<polygon fill="none" stroke="black" points="204,-333.5 204,-355.5 278,-355.5 278,-333.5 204,-333.5"/>
<text text-anchor="start" x="208.75" y="-341" font-family="Linux libertine" font-size="10.00">(64, 1, 2, 64) </text>
<polygon fill="none" stroke="black" points="157,-311.5 157,-333.5 204,-333.5 204,-311.5 157,-311.5"/>
<text text-anchor="start" x="161.75" y="-319" font-family="Linux libertine" font-size="10.00">output: </text>
<polygon fill="none" stroke="black" points="204,-311.5 204,-333.5 278,-333.5 278,-311.5 204,-311.5"/>
<text text-anchor="start" x="211.75" y="-319" font-family="Linux libertine" font-size="10.00">(64, 1, 128) </text>
</g>
<!-- 24&#45;&gt;25 -->
<g id="edge27" class="edge">
<title>24&#45;&gt;25</title>
<path fill="none" stroke="black" d="M193,-391.6C193,-383.99 193,-375.2 193,-366.84"/>
<polygon fill="black" stroke="black" points="196.5,-366.97 193,-356.97 189.5,-366.97 196.5,-366.97"/>
</g>
<!-- 26 -->
<g id="node27" class="node">
<title>26</title>
<polygon fill="#c1ffc1" stroke="none" points="273.5,-275.5 112.5,-275.5 112.5,-231.5 273.5,-231.5 273.5,-275.5"/>
<polygon fill="none" stroke="black" points="112.5,-231.5 112.5,-275.5 158.5,-275.5 158.5,-231.5 112.5,-231.5"/>
<text text-anchor="start" x="120.5" y="-256.75" font-family="Linux libertine" font-size="10.00">Linear</text>
<text text-anchor="start" x="117.12" y="-244" font-family="Linux libertine" font-size="10.00">depth:2</text>
<polygon fill="none" stroke="black" points="158.5,-253.5 158.5,-275.5 205.5,-275.5 205.5,-253.5 158.5,-253.5"/>
<text text-anchor="start" x="168.12" y="-261" font-family="Linux libertine" font-size="10.00">input:</text>
<polygon fill="none" stroke="black" points="205.5,-253.5 205.5,-275.5 273.5,-275.5 273.5,-253.5 205.5,-253.5"/>
<text text-anchor="start" x="210.25" y="-261" font-family="Linux libertine" font-size="10.00">(64, 1, 128) </text>
<polygon fill="none" stroke="black" points="158.5,-231.5 158.5,-253.5 205.5,-253.5 205.5,-231.5 158.5,-231.5"/>
<text text-anchor="start" x="163.25" y="-239" font-family="Linux libertine" font-size="10.00">output: </text>
<polygon fill="none" stroke="black" points="205.5,-231.5 205.5,-253.5 273.5,-253.5 273.5,-231.5 205.5,-231.5"/>
<text text-anchor="start" x="210.25" y="-239" font-family="Linux libertine" font-size="10.00">(64, 1, 128) </text>
</g>
<!-- 25&#45;&gt;26 -->
<g id="edge28" class="edge">
<title>25&#45;&gt;26</title>
<path fill="none" stroke="black" d="M193,-311.6C193,-303.99 193,-295.2 193,-286.84"/>
<polygon fill="black" stroke="black" points="196.5,-286.97 193,-276.97 189.5,-286.97 196.5,-286.97"/>
</g>
<!-- 27 -->
<g id="node28" class="node">
<title>27</title>
<polygon fill="aliceblue" stroke="none" points="275.5,-195.5 110.5,-195.5 110.5,-151.5 275.5,-151.5 275.5,-195.5"/>
<polygon fill="none" stroke="black" points="110.5,-151.5 110.5,-195.5 160.5,-195.5 160.5,-151.5 110.5,-151.5"/>
<text text-anchor="start" x="115.25" y="-176.75" font-family="Linux libertine" font-size="10.00">squeeze</text>
<text text-anchor="start" x="117.12" y="-164" font-family="Linux libertine" font-size="10.00">depth:1</text>
<polygon fill="none" stroke="black" points="160.5,-173.5 160.5,-195.5 207.5,-195.5 207.5,-173.5 160.5,-173.5"/>
<text text-anchor="start" x="170.12" y="-181" font-family="Linux libertine" font-size="10.00">input:</text>
<polygon fill="none" stroke="black" points="207.5,-173.5 207.5,-195.5 275.5,-195.5 275.5,-173.5 207.5,-173.5"/>
<text text-anchor="start" x="212.25" y="-181" font-family="Linux libertine" font-size="10.00">(64, 1, 128) </text>
<polygon fill="none" stroke="black" points="160.5,-151.5 160.5,-173.5 207.5,-173.5 207.5,-151.5 160.5,-151.5"/>
<text text-anchor="start" x="165.25" y="-159" font-family="Linux libertine" font-size="10.00">output: </text>
<polygon fill="none" stroke="black" points="207.5,-151.5 207.5,-173.5 275.5,-173.5 275.5,-151.5 207.5,-151.5"/>
<text text-anchor="start" x="218.25" y="-159" font-family="Linux libertine" font-size="10.00">(64, 128) </text>
</g>
<!-- 26&#45;&gt;27 -->
<g id="edge29" class="edge">
<title>26&#45;&gt;27</title>
<path fill="none" stroke="black" d="M193,-231.6C193,-223.99 193,-215.2 193,-206.84"/>
<polygon fill="black" stroke="black" points="196.5,-206.97 193,-196.97 189.5,-206.97 196.5,-206.97"/>
</g>
<!-- 28 -->
<g id="node29" class="node">
<title>28</title>
<polygon fill="#c1ffc1" stroke="none" points="267.5,-115.5 118.5,-115.5 118.5,-71.5 267.5,-71.5 267.5,-115.5"/>
<polygon fill="none" stroke="black" points="118.5,-71.5 118.5,-115.5 164.5,-115.5 164.5,-71.5 118.5,-71.5"/>
<text text-anchor="start" x="126.5" y="-96.75" font-family="Linux libertine" font-size="10.00">Linear</text>
<text text-anchor="start" x="123.12" y="-84" font-family="Linux libertine" font-size="10.00">depth:1</text>
<polygon fill="none" stroke="black" points="164.5,-93.5 164.5,-115.5 211.5,-115.5 211.5,-93.5 164.5,-93.5"/>
<text text-anchor="start" x="174.12" y="-101" font-family="Linux libertine" font-size="10.00">input:</text>
<polygon fill="none" stroke="black" points="211.5,-93.5 211.5,-115.5 267.5,-115.5 267.5,-93.5 211.5,-93.5"/>
<text text-anchor="start" x="216.25" y="-101" font-family="Linux libertine" font-size="10.00">(64, 128) </text>
<polygon fill="none" stroke="black" points="164.5,-71.5 164.5,-93.5 211.5,-93.5 211.5,-71.5 164.5,-71.5"/>
<text text-anchor="start" x="169.25" y="-79" font-family="Linux libertine" font-size="10.00">output: </text>
<polygon fill="none" stroke="black" points="211.5,-71.5 211.5,-93.5 267.5,-93.5 267.5,-71.5 211.5,-71.5"/>
<text text-anchor="start" x="219.25" y="-79" font-family="Linux libertine" font-size="10.00">(64, 10) </text>
</g>
<!-- 27&#45;&gt;28 -->
<g id="edge30" class="edge">
<title>27&#45;&gt;28</title>
<path fill="none" stroke="black" d="M193,-151.6C193,-143.99 193,-135.2 193,-126.84"/>
<polygon fill="black" stroke="black" points="196.5,-126.97 193,-116.97 189.5,-126.97 196.5,-126.97"/>
</g>
<!-- 29 -->
<g id="node30" class="node">
<title>29</title>
<polygon fill="lightyellow" stroke="none" points="254.75,-35.5 131.25,-35.5 131.25,0 254.75,0 254.75,-35.5"/>
<polygon fill="none" stroke="black" points="131.25,0 131.25,-35.5 207.25,-35.5 207.25,0 131.25,0"/>
<text text-anchor="start" x="136.25" y="-21" font-family="Linux libertine" font-size="10.00">output&#45;tensor</text>
<text text-anchor="start" x="150.88" y="-8.25" font-family="Linux libertine" font-size="10.00">depth:0</text>
<polygon fill="none" stroke="black" points="207.25,0 207.25,-35.5 254.75,-35.5 254.75,0 207.25,0"/>
<text text-anchor="start" x="212.25" y="-14.62" font-family="Linux libertine" font-size="10.00">(64, 10)</text>
</g>
<!-- 28&#45;&gt;29 -->
<g id="edge31" class="edge">
<title>28&#45;&gt;29</title>
<path fill="none" stroke="black" d="M193,-71.56C193,-63.78 193,-54.83 193,-46.53"/>
<polygon fill="black" stroke="black" points="196.5,-46.56 193,-36.56 189.5,-46.56 196.5,-46.56"/>
</g>
</g>
</svg>
