<?xml version="1.0" encoding="UTF-8" standalone="no"?>
<!DOCTYPE svg PUBLIC "-//W3C//DTD SVG 1.1//EN"
 "http://www.w3.org/Graphics/SVG/1.1/DTD/svg11.dtd">
<!-- Generated by graphviz version 12.0.0 (20240803.0821)
 -->
<!-- Title: model Pages: 1 -->
<svg width="469pt" height="1102pt"
 viewBox="0.00 0.00 469.29 1102.00" xmlns="http://www.w3.org/2000/svg" xmlns:xlink="http://www.w3.org/1999/xlink">
<g id="graph0" class="graph" transform="scale(0.838023 0.838023) rotate(0) translate(4 1311)">
<title>model</title>
<polygon fill="white" stroke="none" points="-4,4 -4,-1311 556,-1311 556,4 -4,4"/>
<!-- 0 -->
<g id="node1" class="node">
<title>0</title>
<polygon fill="lightyellow" stroke="none" points="343.38,-1307 208.62,-1307 208.62,-1271.5 343.38,-1271.5 343.38,-1307"/>
<polygon fill="none" stroke="black" points="208.62,-1271.5 208.62,-1307 277.88,-1307 277.88,-1271.5 208.62,-1271.5"/>
<text text-anchor="start" x="213.62" y="-1292.5" font-family="Linux libertine" font-size="10.00">input&#45;tensor</text>
<text text-anchor="start" x="224.88" y="-1279.75" font-family="Linux libertine" font-size="10.00">depth:0</text>
<polygon fill="none" stroke="black" points="277.88,-1271.5 277.88,-1307 343.38,-1307 343.38,-1271.5 277.88,-1271.5"/>
<text text-anchor="start" x="282.88" y="-1286.12" font-family="Linux libertine" font-size="10.00">(64, 28, 28)</text>
</g>
<!-- 1 -->
<g id="node2" class="node">
<title>1</title>
<polygon fill="#c1ffc1" stroke="none" points="356.5,-1235.5 195.5,-1235.5 195.5,-1191.5 356.5,-1191.5 356.5,-1235.5"/>
<polygon fill="none" stroke="black" points="195.5,-1191.5 195.5,-1235.5 241.5,-1235.5 241.5,-1191.5 195.5,-1191.5"/>
<text text-anchor="start" x="201.25" y="-1216.75" font-family="Linux libertine" font-size="10.00">Flatten</text>
<text text-anchor="start" x="200.12" y="-1204" font-family="Linux libertine" font-size="10.00">depth:2</text>
<polygon fill="none" stroke="black" points="241.5,-1213.5 241.5,-1235.5 288.5,-1235.5 288.5,-1213.5 241.5,-1213.5"/>
<text text-anchor="start" x="251.12" y="-1221" font-family="Linux libertine" font-size="10.00">input:</text>
<polygon fill="none" stroke="black" points="288.5,-1213.5 288.5,-1235.5 356.5,-1235.5 356.5,-1213.5 288.5,-1213.5"/>
<text text-anchor="start" x="293.25" y="-1221" font-family="Linux libertine" font-size="10.00">(64, 28, 28) </text>
<polygon fill="none" stroke="black" points="241.5,-1191.5 241.5,-1213.5 288.5,-1213.5 288.5,-1191.5 241.5,-1191.5"/>
<text text-anchor="start" x="246.25" y="-1199" font-family="Linux libertine" font-size="10.00">output: </text>
<polygon fill="none" stroke="black" points="288.5,-1191.5 288.5,-1213.5 356.5,-1213.5 356.5,-1191.5 288.5,-1191.5"/>
<text text-anchor="start" x="299.25" y="-1199" font-family="Linux libertine" font-size="10.00">(64, 784) </text>
</g>
<!-- 0&#45;&gt;1 -->
<g id="edge1" class="edge">
<title>0&#45;&gt;1</title>
<path fill="none" stroke="black" d="M276,-1271.51C276,-1264.15 276,-1255.24 276,-1246.68"/>
<polygon fill="black" stroke="black" points="279.5,-1246.9 276,-1236.9 272.5,-1246.9 279.5,-1246.9"/>
</g>
<!-- 2 -->
<g id="node3" class="node">
<title>2</title>
<polygon fill="#c1ffc1" stroke="none" points="350.5,-1155.5 201.5,-1155.5 201.5,-1111.5 350.5,-1111.5 350.5,-1155.5"/>
<polygon fill="none" stroke="black" points="201.5,-1111.5 201.5,-1155.5 247.5,-1155.5 247.5,-1111.5 201.5,-1111.5"/>
<text text-anchor="start" x="209.5" y="-1136.75" font-family="Linux libertine" font-size="10.00">Linear</text>
<text text-anchor="start" x="206.12" y="-1124" font-family="Linux libertine" font-size="10.00">depth:2</text>
<polygon fill="none" stroke="black" points="247.5,-1133.5 247.5,-1155.5 294.5,-1155.5 294.5,-1133.5 247.5,-1133.5"/>
<text text-anchor="start" x="257.12" y="-1141" font-family="Linux libertine" font-size="10.00">input:</text>
<polygon fill="none" stroke="black" points="294.5,-1133.5 294.5,-1155.5 350.5,-1155.5 350.5,-1133.5 294.5,-1133.5"/>
<text text-anchor="start" x="299.25" y="-1141" font-family="Linux libertine" font-size="10.00">(64, 784) </text>
<polygon fill="none" stroke="black" points="247.5,-1111.5 247.5,-1133.5 294.5,-1133.5 294.5,-1111.5 247.5,-1111.5"/>
<text text-anchor="start" x="252.25" y="-1119" font-family="Linux libertine" font-size="10.00">output: </text>
<polygon fill="none" stroke="black" points="294.5,-1111.5 294.5,-1133.5 350.5,-1133.5 350.5,-1111.5 294.5,-1111.5"/>
<text text-anchor="start" x="299.25" y="-1119" font-family="Linux libertine" font-size="10.00">(64, 128) </text>
</g>
<!-- 1&#45;&gt;2 -->
<g id="edge2" class="edge">
<title>1&#45;&gt;2</title>
<path fill="none" stroke="black" d="M276,-1191.6C276,-1183.99 276,-1175.2 276,-1166.84"/>
<polygon fill="black" stroke="black" points="279.5,-1166.97 276,-1156.97 272.5,-1166.97 279.5,-1166.97"/>
</g>
<!-- 3 -->
<g id="node4" class="node">
<title>3</title>
<polygon fill="#c1ffc1" stroke="none" points="350.5,-1075.5 201.5,-1075.5 201.5,-1031.5 350.5,-1031.5 350.5,-1075.5"/>
<polygon fill="none" stroke="black" points="201.5,-1031.5 201.5,-1075.5 247.5,-1075.5 247.5,-1031.5 201.5,-1031.5"/>
<text text-anchor="start" x="211.75" y="-1056.75" font-family="Linux libertine" font-size="10.00">ReLU</text>
<text text-anchor="start" x="206.12" y="-1044" font-family="Linux libertine" font-size="10.00">depth:2</text>
<polygon fill="none" stroke="black" points="247.5,-1053.5 247.5,-1075.5 294.5,-1075.5 294.5,-1053.5 247.5,-1053.5"/>
<text text-anchor="start" x="257.12" y="-1061" font-family="Linux libertine" font-size="10.00">input:</text>
<polygon fill="none" stroke="black" points="294.5,-1053.5 294.5,-1075.5 350.5,-1075.5 350.5,-1053.5 294.5,-1053.5"/>
<text text-anchor="start" x="299.25" y="-1061" font-family="Linux libertine" font-size="10.00">(64, 128) </text>
<polygon fill="none" stroke="black" points="247.5,-1031.5 247.5,-1053.5 294.5,-1053.5 294.5,-1031.5 247.5,-1031.5"/>
<text text-anchor="start" x="252.25" y="-1039" font-family="Linux libertine" font-size="10.00">output: </text>
<polygon fill="none" stroke="black" points="294.5,-1031.5 294.5,-1053.5 350.5,-1053.5 350.5,-1031.5 294.5,-1031.5"/>
<text text-anchor="start" x="299.25" y="-1039" font-family="Linux libertine" font-size="10.00">(64, 128) </text>
</g>
<!-- 2&#45;&gt;3 -->
<g id="edge3" class="edge">
<title>2&#45;&gt;3</title>
<path fill="none" stroke="black" d="M276,-1111.6C276,-1103.99 276,-1095.2 276,-1086.84"/>
<polygon fill="black" stroke="black" points="279.5,-1086.97 276,-1076.97 272.5,-1086.97 279.5,-1086.97"/>
</g>
<!-- 4 -->
<g id="node5" class="node">
<title>4</title>
<polygon fill="aliceblue" stroke="none" points="364.5,-995.5 187.5,-995.5 187.5,-951.5 364.5,-951.5 364.5,-995.5"/>
<polygon fill="none" stroke="black" points="187.5,-951.5 187.5,-995.5 249.5,-995.5 249.5,-951.5 187.5,-951.5"/>
<text text-anchor="start" x="192.25" y="-976.75" font-family="Linux libertine" font-size="10.00">unsqueeze</text>
<text text-anchor="start" x="200.12" y="-964" font-family="Linux libertine" font-size="10.00">depth:1</text>
<polygon fill="none" stroke="black" points="249.5,-973.5 249.5,-995.5 296.5,-995.5 296.5,-973.5 249.5,-973.5"/>
<text text-anchor="start" x="259.12" y="-981" font-family="Linux libertine" font-size="10.00">input:</text>
<polygon fill="none" stroke="black" points="296.5,-973.5 296.5,-995.5 364.5,-995.5 364.5,-973.5 296.5,-973.5"/>
<text text-anchor="start" x="307.25" y="-981" font-family="Linux libertine" font-size="10.00">(64, 128) </text>
<polygon fill="none" stroke="black" points="249.5,-951.5 249.5,-973.5 296.5,-973.5 296.5,-951.5 249.5,-951.5"/>
<text text-anchor="start" x="254.25" y="-959" font-family="Linux libertine" font-size="10.00">output: </text>
<polygon fill="none" stroke="black" points="296.5,-951.5 296.5,-973.5 364.5,-973.5 364.5,-951.5 296.5,-951.5"/>
<text text-anchor="start" x="301.25" y="-959" font-family="Linux libertine" font-size="10.00">(64, 1, 128) </text>
</g>
<!-- 3&#45;&gt;4 -->
<g id="edge4" class="edge">
<title>3&#45;&gt;4</title>
<path fill="none" stroke="black" d="M276,-1031.6C276,-1023.99 276,-1015.2 276,-1006.84"/>
<polygon fill="black" stroke="black" points="279.5,-1006.97 276,-996.97 272.5,-1006.97 279.5,-1006.97"/>
</g>
<!-- 5 -->
<g id="node6" class="node">
<title>5</title>
<polygon fill="#c1ffc1" stroke="none" points="171.5,-915.5 10.5,-915.5 10.5,-871.5 171.5,-871.5 171.5,-915.5"/>
<polygon fill="none" stroke="black" points="10.5,-871.5 10.5,-915.5 56.5,-915.5 56.5,-871.5 10.5,-871.5"/>
<text text-anchor="start" x="18.5" y="-896.75" font-family="Linux libertine" font-size="10.00">Linear</text>
<text text-anchor="start" x="15.12" y="-884" font-family="Linux libertine" font-size="10.00">depth:2</text>
<polygon fill="none" stroke="black" points="56.5,-893.5 56.5,-915.5 103.5,-915.5 103.5,-893.5 56.5,-893.5"/>
<text text-anchor="start" x="66.12" y="-901" font-family="Linux libertine" font-size="10.00">input:</text>
<polygon fill="none" stroke="black" points="103.5,-893.5 103.5,-915.5 171.5,-915.5 171.5,-893.5 103.5,-893.5"/>
<text text-anchor="start" x="108.25" y="-901" font-family="Linux libertine" font-size="10.00">(64, 1, 128) </text>
<polygon fill="none" stroke="black" points="56.5,-871.5 56.5,-893.5 103.5,-893.5 103.5,-871.5 56.5,-871.5"/>
<text text-anchor="start" x="61.25" y="-879" font-family="Linux libertine" font-size="10.00">output: </text>
<polygon fill="none" stroke="black" points="103.5,-871.5 103.5,-893.5 171.5,-893.5 171.5,-871.5 103.5,-871.5"/>
<text text-anchor="start" x="108.25" y="-879" font-family="Linux libertine" font-size="10.00">(64, 1, 128) </text>
</g>
<!-- 4&#45;&gt;5 -->
<g id="edge5" class="edge">
<title>4&#45;&gt;5</title>
<path fill="none" stroke="black" d="M226.42,-951.6C203.3,-941.85 175.58,-930.16 151.26,-919.91"/>
<polygon fill="black" stroke="black" points="152.68,-916.71 142.11,-916.05 149.96,-923.16 152.68,-916.71"/>
</g>
<!-- 9 -->
<g id="node10" class="node">
<title>9</title>
<polygon fill="#c1ffc1" stroke="none" points="356.5,-915.5 195.5,-915.5 195.5,-871.5 356.5,-871.5 356.5,-915.5"/>
<polygon fill="none" stroke="black" points="195.5,-871.5 195.5,-915.5 241.5,-915.5 241.5,-871.5 195.5,-871.5"/>
<text text-anchor="start" x="203.5" y="-896.75" font-family="Linux libertine" font-size="10.00">Linear</text>
<text text-anchor="start" x="200.12" y="-884" font-family="Linux libertine" font-size="10.00">depth:2</text>
<polygon fill="none" stroke="black" points="241.5,-893.5 241.5,-915.5 288.5,-915.5 288.5,-893.5 241.5,-893.5"/>
<text text-anchor="start" x="251.12" y="-901" font-family="Linux libertine" font-size="10.00">input:</text>
<polygon fill="none" stroke="black" points="288.5,-893.5 288.5,-915.5 356.5,-915.5 356.5,-893.5 288.5,-893.5"/>
<text text-anchor="start" x="293.25" y="-901" font-family="Linux libertine" font-size="10.00">(64, 1, 128) </text>
<polygon fill="none" stroke="black" points="241.5,-871.5 241.5,-893.5 288.5,-893.5 288.5,-871.5 241.5,-871.5"/>
<text text-anchor="start" x="246.25" y="-879" font-family="Linux libertine" font-size="10.00">output: </text>
<polygon fill="none" stroke="black" points="288.5,-871.5 288.5,-893.5 356.5,-893.5 356.5,-871.5 288.5,-871.5"/>
<text text-anchor="start" x="293.25" y="-879" font-family="Linux libertine" font-size="10.00">(64, 1, 128) </text>
</g>
<!-- 4&#45;&gt;9 -->
<g id="edge6" class="edge">
<title>4&#45;&gt;9</title>
<path fill="none" stroke="black" d="M276,-951.6C276,-943.99 276,-935.2 276,-926.84"/>
<polygon fill="black" stroke="black" points="279.5,-926.97 276,-916.97 272.5,-926.97 279.5,-926.97"/>
</g>
<!-- 13 -->
<g id="node14" class="node">
<title>13</title>
<polygon fill="#c1ffc1" stroke="none" points="539.5,-915.5 378.5,-915.5 378.5,-871.5 539.5,-871.5 539.5,-915.5"/>
<polygon fill="none" stroke="black" points="378.5,-871.5 378.5,-915.5 424.5,-915.5 424.5,-871.5 378.5,-871.5"/>
<text text-anchor="start" x="386.5" y="-896.75" font-family="Linux libertine" font-size="10.00">Linear</text>
<text text-anchor="start" x="383.12" y="-884" font-family="Linux libertine" font-size="10.00">depth:2</text>
<polygon fill="none" stroke="black" points="424.5,-893.5 424.5,-915.5 471.5,-915.5 471.5,-893.5 424.5,-893.5"/>
<text text-anchor="start" x="434.12" y="-901" font-family="Linux libertine" font-size="10.00">input:</text>
<polygon fill="none" stroke="black" points="471.5,-893.5 471.5,-915.5 539.5,-915.5 539.5,-893.5 471.5,-893.5"/>
<text text-anchor="start" x="476.25" y="-901" font-family="Linux libertine" font-size="10.00">(64, 1, 128) </text>
<polygon fill="none" stroke="black" points="424.5,-871.5 424.5,-893.5 471.5,-893.5 471.5,-871.5 424.5,-871.5"/>
<text text-anchor="start" x="429.25" y="-879" font-family="Linux libertine" font-size="10.00">output: </text>
<polygon fill="none" stroke="black" points="471.5,-871.5 471.5,-893.5 539.5,-893.5 539.5,-871.5 471.5,-871.5"/>
<text text-anchor="start" x="476.25" y="-879" font-family="Linux libertine" font-size="10.00">(64, 1, 128) </text>
</g>
<!-- 4&#45;&gt;13 -->
<g id="edge7" class="edge">
<title>4&#45;&gt;13</title>
<path fill="none" stroke="black" d="M325.04,-951.6C347.91,-941.85 375.33,-930.16 399.39,-919.91"/>
<polygon fill="black" stroke="black" points="400.6,-923.19 408.43,-916.05 397.86,-916.76 400.6,-923.19"/>
</g>
<!-- 6 -->
<g id="node7" class="node">
<title>6</title>
<polygon fill="aliceblue" stroke="none" points="172,-835.5 2,-835.5 2,-791.5 172,-791.5 172,-835.5"/>
<polygon fill="none" stroke="black" points="2,-791.5 2,-835.5 51,-835.5 51,-791.5 2,-791.5"/>
<text text-anchor="start" x="7" y="-816.75" font-family="Linux libertine" font-size="10.00">reshape</text>
<text text-anchor="start" x="8.12" y="-804" font-family="Linux libertine" font-size="10.00">depth:2</text>
<polygon fill="none" stroke="black" points="51,-813.5 51,-835.5 98,-835.5 98,-813.5 51,-813.5"/>
<text text-anchor="start" x="60.62" y="-821" font-family="Linux libertine" font-size="10.00">input:</text>
<polygon fill="none" stroke="black" points="98,-813.5 98,-835.5 172,-835.5 172,-813.5 98,-813.5"/>
<text text-anchor="start" x="105.75" y="-821" font-family="Linux libertine" font-size="10.00">(64, 1, 128) </text>
<polygon fill="none" stroke="black" points="51,-791.5 51,-813.5 98,-813.5 98,-791.5 51,-791.5"/>
<text text-anchor="start" x="55.75" y="-799" font-family="Linux libertine" font-size="10.00">output: </text>
<polygon fill="none" stroke="black" points="98,-791.5 98,-813.5 172,-813.5 172,-791.5 98,-791.5"/>
<text text-anchor="start" x="102.75" y="-799" font-family="Linux libertine" font-size="10.00">(64, 1, 8, 16) </text>
</g>
<!-- 5&#45;&gt;6 -->
<g id="edge8" class="edge">
<title>5&#45;&gt;6</title>
<path fill="none" stroke="black" d="M89.93,-871.6C89.54,-863.99 89.09,-855.2 88.66,-846.84"/>
<polygon fill="black" stroke="black" points="92.16,-846.78 88.15,-836.97 85.17,-847.14 92.16,-846.78"/>
</g>
<!-- 7 -->
<g id="node8" class="node">
<title>7</title>
<polygon fill="aliceblue" stroke="none" points="172,-755.5 0,-755.5 0,-711.5 172,-711.5 172,-755.5"/>
<polygon fill="none" stroke="black" points="0,-711.5 0,-755.5 51,-755.5 51,-711.5 0,-711.5"/>
<text text-anchor="start" x="4.88" y="-736.75" font-family="Linux libertine" font-size="10.00">permute</text>
<text text-anchor="start" x="7.12" y="-724" font-family="Linux libertine" font-size="10.00">depth:2</text>
<polygon fill="none" stroke="black" points="51,-733.5 51,-755.5 98,-755.5 98,-733.5 51,-733.5"/>
<text text-anchor="start" x="60.62" y="-741" font-family="Linux libertine" font-size="10.00">input:</text>
<polygon fill="none" stroke="black" points="98,-733.5 98,-755.5 172,-755.5 172,-733.5 98,-733.5"/>
<text text-anchor="start" x="102.75" y="-741" font-family="Linux libertine" font-size="10.00">(64, 1, 8, 16) </text>
<polygon fill="none" stroke="black" points="51,-711.5 51,-733.5 98,-733.5 98,-711.5 51,-711.5"/>
<text text-anchor="start" x="55.75" y="-719" font-family="Linux libertine" font-size="10.00">output: </text>
<polygon fill="none" stroke="black" points="98,-711.5 98,-733.5 172,-733.5 172,-711.5 98,-711.5"/>
<text text-anchor="start" x="102.75" y="-719" font-family="Linux libertine" font-size="10.00">(64, 8, 1, 16) </text>
</g>
<!-- 6&#45;&gt;7 -->
<g id="edge9" class="edge">
<title>6&#45;&gt;7</title>
<path fill="none" stroke="black" d="M86.73,-791.6C86.63,-783.99 86.52,-775.2 86.41,-766.84"/>
<polygon fill="black" stroke="black" points="89.92,-766.93 86.29,-756.97 82.92,-767.02 89.92,-766.93"/>
</g>
<!-- 8 -->
<g id="node9" class="node">
<title>8</title>
<polygon fill="aliceblue" stroke="none" points="172,-675.5 2,-675.5 2,-631.5 172,-631.5 172,-675.5"/>
<polygon fill="none" stroke="black" points="2,-631.5 2,-675.5 51,-675.5 51,-631.5 2,-631.5"/>
<text text-anchor="start" x="7" y="-656.75" font-family="Linux libertine" font-size="10.00">reshape</text>
<text text-anchor="start" x="8.12" y="-644" font-family="Linux libertine" font-size="10.00">depth:2</text>
<polygon fill="none" stroke="black" points="51,-653.5 51,-675.5 98,-675.5 98,-653.5 51,-653.5"/>
<text text-anchor="start" x="60.62" y="-661" font-family="Linux libertine" font-size="10.00">input:</text>
<polygon fill="none" stroke="black" points="98,-653.5 98,-675.5 172,-675.5 172,-653.5 98,-653.5"/>
<text text-anchor="start" x="102.75" y="-661" font-family="Linux libertine" font-size="10.00">(64, 8, 1, 16) </text>
<polygon fill="none" stroke="black" points="51,-631.5 51,-653.5 98,-653.5 98,-631.5 51,-631.5"/>
<text text-anchor="start" x="55.75" y="-639" font-family="Linux libertine" font-size="10.00">output: </text>
<polygon fill="none" stroke="black" points="98,-631.5 98,-653.5 172,-653.5 172,-631.5 98,-631.5"/>
<text text-anchor="start" x="105.75" y="-639" font-family="Linux libertine" font-size="10.00">(512, 1, 16) </text>
</g>
<!-- 7&#45;&gt;8 -->
<g id="edge10" class="edge">
<title>7&#45;&gt;8</title>
<path fill="none" stroke="black" d="M86.27,-711.6C86.37,-703.99 86.48,-695.2 86.59,-686.84"/>
<polygon fill="black" stroke="black" points="90.08,-687.02 86.71,-676.97 83.08,-686.93 90.08,-687.02"/>
</g>
<!-- 17 -->
<g id="node18" class="node">
<title>17</title>
<polygon fill="#c1ffc1" stroke="none" points="385,-595.5 167,-595.5 167,-551.5 385,-551.5 385,-595.5"/>
<polygon fill="none" stroke="black" points="167,-551.5 167,-595.5 252,-595.5 252,-551.5 167,-551.5"/>
<text text-anchor="start" x="172" y="-576.75" font-family="Linux libertine" font-size="10.00">ZYDotAttention</text>
<text text-anchor="start" x="191.12" y="-564" font-family="Linux libertine" font-size="10.00">depth:2</text>
<polygon fill="none" stroke="black" points="252,-573.5 252,-595.5 299,-595.5 299,-573.5 252,-573.5"/>
<text text-anchor="start" x="261.62" y="-581" font-family="Linux libertine" font-size="10.00">input:</text>
<polygon fill="none" stroke="black" points="299,-573.5 299,-595.5 385,-595.5 385,-573.5 299,-573.5"/>
<text text-anchor="start" x="303.75" y="-581" font-family="Linux libertine" font-size="10.00">3 x (512, 1, 16) </text>
<polygon fill="none" stroke="black" points="252,-551.5 252,-573.5 299,-573.5 299,-551.5 252,-551.5"/>
<text text-anchor="start" x="256.75" y="-559" font-family="Linux libertine" font-size="10.00">output: </text>
<polygon fill="none" stroke="black" points="299,-551.5 299,-573.5 385,-573.5 385,-551.5 299,-551.5"/>
<text text-anchor="start" x="312.75" y="-559" font-family="Linux libertine" font-size="10.00">(512, 1, 16) </text>
</g>
<!-- 8&#45;&gt;17 -->
<g id="edge11" class="edge">
<title>8&#45;&gt;17</title>
<path fill="none" stroke="black" d="M137.65,-631.6C161.38,-621.81 189.84,-610.06 214.77,-599.77"/>
<polygon fill="black" stroke="black" points="215.9,-603.09 223.81,-596.04 213.23,-596.62 215.9,-603.09"/>
</g>
<!-- 10 -->
<g id="node11" class="node">
<title>10</title>
<polygon fill="aliceblue" stroke="none" points="361,-835.5 191,-835.5 191,-791.5 361,-791.5 361,-835.5"/>
<polygon fill="none" stroke="black" points="191,-791.5 191,-835.5 240,-835.5 240,-791.5 191,-791.5"/>
<text text-anchor="start" x="196" y="-816.75" font-family="Linux libertine" font-size="10.00">reshape</text>
<text text-anchor="start" x="197.12" y="-804" font-family="Linux libertine" font-size="10.00">depth:2</text>
<polygon fill="none" stroke="black" points="240,-813.5 240,-835.5 287,-835.5 287,-813.5 240,-813.5"/>
<text text-anchor="start" x="249.62" y="-821" font-family="Linux libertine" font-size="10.00">input:</text>
<polygon fill="none" stroke="black" points="287,-813.5 287,-835.5 361,-835.5 361,-813.5 287,-813.5"/>
<text text-anchor="start" x="294.75" y="-821" font-family="Linux libertine" font-size="10.00">(64, 1, 128) </text>
<polygon fill="none" stroke="black" points="240,-791.5 240,-813.5 287,-813.5 287,-791.5 240,-791.5"/>
<text text-anchor="start" x="244.75" y="-799" font-family="Linux libertine" font-size="10.00">output: </text>
<polygon fill="none" stroke="black" points="287,-791.5 287,-813.5 361,-813.5 361,-791.5 287,-791.5"/>
<text text-anchor="start" x="291.75" y="-799" font-family="Linux libertine" font-size="10.00">(64, 1, 8, 16) </text>
</g>
<!-- 9&#45;&gt;10 -->
<g id="edge12" class="edge">
<title>9&#45;&gt;10</title>
<path fill="none" stroke="black" d="M276,-871.6C276,-863.99 276,-855.2 276,-846.84"/>
<polygon fill="black" stroke="black" points="279.5,-846.97 276,-836.97 272.5,-846.97 279.5,-846.97"/>
</g>
<!-- 11 -->
<g id="node12" class="node">
<title>11</title>
<polygon fill="aliceblue" stroke="none" points="362,-755.5 190,-755.5 190,-711.5 362,-711.5 362,-755.5"/>
<polygon fill="none" stroke="black" points="190,-711.5 190,-755.5 241,-755.5 241,-711.5 190,-711.5"/>
<text text-anchor="start" x="194.88" y="-736.75" font-family="Linux libertine" font-size="10.00">permute</text>
<text text-anchor="start" x="197.12" y="-724" font-family="Linux libertine" font-size="10.00">depth:2</text>
<polygon fill="none" stroke="black" points="241,-733.5 241,-755.5 288,-755.5 288,-733.5 241,-733.5"/>
<text text-anchor="start" x="250.62" y="-741" font-family="Linux libertine" font-size="10.00">input:</text>
<polygon fill="none" stroke="black" points="288,-733.5 288,-755.5 362,-755.5 362,-733.5 288,-733.5"/>
<text text-anchor="start" x="292.75" y="-741" font-family="Linux libertine" font-size="10.00">(64, 1, 8, 16) </text>
<polygon fill="none" stroke="black" points="241,-711.5 241,-733.5 288,-733.5 288,-711.5 241,-711.5"/>
<text text-anchor="start" x="245.75" y="-719" font-family="Linux libertine" font-size="10.00">output: </text>
<polygon fill="none" stroke="black" points="288,-711.5 288,-733.5 362,-733.5 362,-711.5 288,-711.5"/>
<text text-anchor="start" x="292.75" y="-719" font-family="Linux libertine" font-size="10.00">(64, 8, 1, 16) </text>
</g>
<!-- 10&#45;&gt;11 -->
<g id="edge13" class="edge">
<title>10&#45;&gt;11</title>
<path fill="none" stroke="black" d="M276,-791.6C276,-783.99 276,-775.2 276,-766.84"/>
<polygon fill="black" stroke="black" points="279.5,-766.97 276,-756.97 272.5,-766.97 279.5,-766.97"/>
</g>
<!-- 12 -->
<g id="node13" class="node">
<title>12</title>
<polygon fill="aliceblue" stroke="none" points="361,-675.5 191,-675.5 191,-631.5 361,-631.5 361,-675.5"/>
<polygon fill="none" stroke="black" points="191,-631.5 191,-675.5 240,-675.5 240,-631.5 191,-631.5"/>
<text text-anchor="start" x="196" y="-656.75" font-family="Linux libertine" font-size="10.00">reshape</text>
<text text-anchor="start" x="197.12" y="-644" font-family="Linux libertine" font-size="10.00">depth:2</text>
<polygon fill="none" stroke="black" points="240,-653.5 240,-675.5 287,-675.5 287,-653.5 240,-653.5"/>
<text text-anchor="start" x="249.62" y="-661" font-family="Linux libertine" font-size="10.00">input:</text>
<polygon fill="none" stroke="black" points="287,-653.5 287,-675.5 361,-675.5 361,-653.5 287,-653.5"/>
<text text-anchor="start" x="291.75" y="-661" font-family="Linux libertine" font-size="10.00">(64, 8, 1, 16) </text>
<polygon fill="none" stroke="black" points="240,-631.5 240,-653.5 287,-653.5 287,-631.5 240,-631.5"/>
<text text-anchor="start" x="244.75" y="-639" font-family="Linux libertine" font-size="10.00">output: </text>
<polygon fill="none" stroke="black" points="287,-631.5 287,-653.5 361,-653.5 361,-631.5 287,-631.5"/>
<text text-anchor="start" x="294.75" y="-639" font-family="Linux libertine" font-size="10.00">(512, 1, 16) </text>
</g>
<!-- 11&#45;&gt;12 -->
<g id="edge14" class="edge">
<title>11&#45;&gt;12</title>
<path fill="none" stroke="black" d="M276,-711.6C276,-703.99 276,-695.2 276,-686.84"/>
<polygon fill="black" stroke="black" points="279.5,-686.97 276,-676.97 272.5,-686.97 279.5,-686.97"/>
</g>
<!-- 12&#45;&gt;17 -->
<g id="edge15" class="edge">
<title>12&#45;&gt;17</title>
<path fill="none" stroke="black" d="M276,-631.6C276,-623.99 276,-615.2 276,-606.84"/>
<polygon fill="black" stroke="black" points="279.5,-606.97 276,-596.97 272.5,-606.97 279.5,-606.97"/>
</g>
<!-- 14 -->
<g id="node15" class="node">
<title>14</title>
<polygon fill="aliceblue" stroke="none" points="550,-835.5 380,-835.5 380,-791.5 550,-791.5 550,-835.5"/>
<polygon fill="none" stroke="black" points="380,-791.5 380,-835.5 429,-835.5 429,-791.5 380,-791.5"/>
<text text-anchor="start" x="385" y="-816.75" font-family="Linux libertine" font-size="10.00">reshape</text>
<text text-anchor="start" x="386.12" y="-804" font-family="Linux libertine" font-size="10.00">depth:2</text>
<polygon fill="none" stroke="black" points="429,-813.5 429,-835.5 476,-835.5 476,-813.5 429,-813.5"/>
<text text-anchor="start" x="438.62" y="-821" font-family="Linux libertine" font-size="10.00">input:</text>
<polygon fill="none" stroke="black" points="476,-813.5 476,-835.5 550,-835.5 550,-813.5 476,-813.5"/>
<text text-anchor="start" x="483.75" y="-821" font-family="Linux libertine" font-size="10.00">(64, 1, 128) </text>
<polygon fill="none" stroke="black" points="429,-791.5 429,-813.5 476,-813.5 476,-791.5 429,-791.5"/>
<text text-anchor="start" x="433.75" y="-799" font-family="Linux libertine" font-size="10.00">output: </text>
<polygon fill="none" stroke="black" points="476,-791.5 476,-813.5 550,-813.5 550,-791.5 476,-791.5"/>
<text text-anchor="start" x="480.75" y="-799" font-family="Linux libertine" font-size="10.00">(64, 1, 8, 16) </text>
</g>
<!-- 13&#45;&gt;14 -->
<g id="edge16" class="edge">
<title>13&#45;&gt;14</title>
<path fill="none" stroke="black" d="M460.61,-871.6C461.19,-863.99 461.87,-855.2 462.51,-846.84"/>
<polygon fill="black" stroke="black" points="465.99,-847.21 463.27,-836.97 459.01,-846.67 465.99,-847.21"/>
</g>
<!-- 15 -->
<g id="node16" class="node">
<title>15</title>
<polygon fill="aliceblue" stroke="none" points="552,-755.5 380,-755.5 380,-711.5 552,-711.5 552,-755.5"/>
<polygon fill="none" stroke="black" points="380,-711.5 380,-755.5 431,-755.5 431,-711.5 380,-711.5"/>
<text text-anchor="start" x="384.88" y="-736.75" font-family="Linux libertine" font-size="10.00">permute</text>
<text text-anchor="start" x="387.12" y="-724" font-family="Linux libertine" font-size="10.00">depth:2</text>
<polygon fill="none" stroke="black" points="431,-733.5 431,-755.5 478,-755.5 478,-733.5 431,-733.5"/>
<text text-anchor="start" x="440.62" y="-741" font-family="Linux libertine" font-size="10.00">input:</text>
<polygon fill="none" stroke="black" points="478,-733.5 478,-755.5 552,-755.5 552,-733.5 478,-733.5"/>
<text text-anchor="start" x="482.75" y="-741" font-family="Linux libertine" font-size="10.00">(64, 1, 8, 16) </text>
<polygon fill="none" stroke="black" points="431,-711.5 431,-733.5 478,-733.5 478,-711.5 431,-711.5"/>
<text text-anchor="start" x="435.75" y="-719" font-family="Linux libertine" font-size="10.00">output: </text>
<polygon fill="none" stroke="black" points="478,-711.5 478,-733.5 552,-733.5 552,-711.5 478,-711.5"/>
<text text-anchor="start" x="482.75" y="-719" font-family="Linux libertine" font-size="10.00">(64, 8, 1, 16) </text>
</g>
<!-- 14&#45;&gt;15 -->
<g id="edge17" class="edge">
<title>14&#45;&gt;15</title>
<path fill="none" stroke="black" d="M465.27,-791.6C465.37,-783.99 465.48,-775.2 465.59,-766.84"/>
<polygon fill="black" stroke="black" points="469.08,-767.02 465.71,-756.97 462.08,-766.93 469.08,-767.02"/>
</g>
<!-- 16 -->
<g id="node17" class="node">
<title>16</title>
<polygon fill="aliceblue" stroke="none" points="550,-675.5 380,-675.5 380,-631.5 550,-631.5 550,-675.5"/>
<polygon fill="none" stroke="black" points="380,-631.5 380,-675.5 429,-675.5 429,-631.5 380,-631.5"/>
<text text-anchor="start" x="385" y="-656.75" font-family="Linux libertine" font-size="10.00">reshape</text>
<text text-anchor="start" x="386.12" y="-644" font-family="Linux libertine" font-size="10.00">depth:2</text>
<polygon fill="none" stroke="black" points="429,-653.5 429,-675.5 476,-675.5 476,-653.5 429,-653.5"/>
<text text-anchor="start" x="438.62" y="-661" font-family="Linux libertine" font-size="10.00">input:</text>
<polygon fill="none" stroke="black" points="476,-653.5 476,-675.5 550,-675.5 550,-653.5 476,-653.5"/>
<text text-anchor="start" x="480.75" y="-661" font-family="Linux libertine" font-size="10.00">(64, 8, 1, 16) </text>
<polygon fill="none" stroke="black" points="429,-631.5 429,-653.5 476,-653.5 476,-631.5 429,-631.5"/>
<text text-anchor="start" x="433.75" y="-639" font-family="Linux libertine" font-size="10.00">output: </text>
<polygon fill="none" stroke="black" points="476,-631.5 476,-653.5 550,-653.5 550,-631.5 476,-631.5"/>
<text text-anchor="start" x="483.75" y="-639" font-family="Linux libertine" font-size="10.00">(512, 1, 16) </text>
</g>
<!-- 15&#45;&gt;16 -->
<g id="edge18" class="edge">
<title>15&#45;&gt;16</title>
<path fill="none" stroke="black" d="M465.73,-711.6C465.63,-703.99 465.52,-695.2 465.41,-686.84"/>
<polygon fill="black" stroke="black" points="468.92,-686.93 465.29,-676.97 461.92,-687.02 468.92,-686.93"/>
</g>
<!-- 16&#45;&gt;17 -->
<g id="edge19" class="edge">
<title>16&#45;&gt;17</title>
<path fill="none" stroke="black" d="M414.35,-631.6C390.62,-621.81 362.16,-610.06 337.23,-599.77"/>
<polygon fill="black" stroke="black" points="338.77,-596.62 328.19,-596.04 336.1,-603.09 338.77,-596.62"/>
</g>
<!-- 18 -->
<g id="node19" class="node">
<title>18</title>
<polygon fill="aliceblue" stroke="none" points="361,-515.5 191,-515.5 191,-471.5 361,-471.5 361,-515.5"/>
<polygon fill="none" stroke="black" points="191,-471.5 191,-515.5 240,-515.5 240,-471.5 191,-471.5"/>
<text text-anchor="start" x="196" y="-496.75" font-family="Linux libertine" font-size="10.00">reshape</text>
<text text-anchor="start" x="197.12" y="-484" font-family="Linux libertine" font-size="10.00">depth:2</text>
<polygon fill="none" stroke="black" points="240,-493.5 240,-515.5 287,-515.5 287,-493.5 240,-493.5"/>
<text text-anchor="start" x="249.62" y="-501" font-family="Linux libertine" font-size="10.00">input:</text>
<polygon fill="none" stroke="black" points="287,-493.5 287,-515.5 361,-515.5 361,-493.5 287,-493.5"/>
<text text-anchor="start" x="294.75" y="-501" font-family="Linux libertine" font-size="10.00">(512, 1, 16) </text>
<polygon fill="none" stroke="black" points="240,-471.5 240,-493.5 287,-493.5 287,-471.5 240,-471.5"/>
<text text-anchor="start" x="244.75" y="-479" font-family="Linux libertine" font-size="10.00">output: </text>
<polygon fill="none" stroke="black" points="287,-471.5 287,-493.5 361,-493.5 361,-471.5 287,-471.5"/>
<text text-anchor="start" x="291.75" y="-479" font-family="Linux libertine" font-size="10.00">(64, 8, 1, 16) </text>
</g>
<!-- 17&#45;&gt;18 -->
<g id="edge20" class="edge">
<title>17&#45;&gt;18</title>
<path fill="none" stroke="black" d="M276,-551.6C276,-543.99 276,-535.2 276,-526.84"/>
<polygon fill="black" stroke="black" points="279.5,-526.97 276,-516.97 272.5,-526.97 279.5,-526.97"/>
</g>
<!-- 19 -->
<g id="node20" class="node">
<title>19</title>
<polygon fill="aliceblue" stroke="none" points="362,-435.5 190,-435.5 190,-391.5 362,-391.5 362,-435.5"/>
<polygon fill="none" stroke="black" points="190,-391.5 190,-435.5 241,-435.5 241,-391.5 190,-391.5"/>
<text text-anchor="start" x="194.88" y="-416.75" font-family="Linux libertine" font-size="10.00">permute</text>
<text text-anchor="start" x="197.12" y="-404" font-family="Linux libertine" font-size="10.00">depth:2</text>
<polygon fill="none" stroke="black" points="241,-413.5 241,-435.5 288,-435.5 288,-413.5 241,-413.5"/>
<text text-anchor="start" x="250.62" y="-421" font-family="Linux libertine" font-size="10.00">input:</text>
<polygon fill="none" stroke="black" points="288,-413.5 288,-435.5 362,-435.5 362,-413.5 288,-413.5"/>
<text text-anchor="start" x="292.75" y="-421" font-family="Linux libertine" font-size="10.00">(64, 8, 1, 16) </text>
<polygon fill="none" stroke="black" points="241,-391.5 241,-413.5 288,-413.5 288,-391.5 241,-391.5"/>
<text text-anchor="start" x="245.75" y="-399" font-family="Linux libertine" font-size="10.00">output: </text>
<polygon fill="none" stroke="black" points="288,-391.5 288,-413.5 362,-413.5 362,-391.5 288,-391.5"/>
<text text-anchor="start" x="292.75" y="-399" font-family="Linux libertine" font-size="10.00">(64, 1, 8, 16) </text>
</g>
<!-- 18&#45;&gt;19 -->
<g id="edge21" class="edge">
<title>18&#45;&gt;19</title>
<path fill="none" stroke="black" d="M276,-471.6C276,-463.99 276,-455.2 276,-446.84"/>
<polygon fill="black" stroke="black" points="279.5,-446.97 276,-436.97 272.5,-446.97 279.5,-446.97"/>
</g>
<!-- 20 -->
<g id="node21" class="node">
<title>20</title>
<polygon fill="aliceblue" stroke="none" points="361,-355.5 191,-355.5 191,-311.5 361,-311.5 361,-355.5"/>
<polygon fill="none" stroke="black" points="191,-311.5 191,-355.5 240,-355.5 240,-311.5 191,-311.5"/>
<text text-anchor="start" x="196" y="-336.75" font-family="Linux libertine" font-size="10.00">reshape</text>
<text text-anchor="start" x="197.12" y="-324" font-family="Linux libertine" font-size="10.00">depth:2</text>
<polygon fill="none" stroke="black" points="240,-333.5 240,-355.5 287,-355.5 287,-333.5 240,-333.5"/>
<text text-anchor="start" x="249.62" y="-341" font-family="Linux libertine" font-size="10.00">input:</text>
<polygon fill="none" stroke="black" points="287,-333.5 287,-355.5 361,-355.5 361,-333.5 287,-333.5"/>
<text text-anchor="start" x="291.75" y="-341" font-family="Linux libertine" font-size="10.00">(64, 1, 8, 16) </text>
<polygon fill="none" stroke="black" points="240,-311.5 240,-333.5 287,-333.5 287,-311.5 240,-311.5"/>
<text text-anchor="start" x="244.75" y="-319" font-family="Linux libertine" font-size="10.00">output: </text>
<polygon fill="none" stroke="black" points="287,-311.5 287,-333.5 361,-333.5 361,-311.5 287,-311.5"/>
<text text-anchor="start" x="294.75" y="-319" font-family="Linux libertine" font-size="10.00">(64, 1, 128) </text>
</g>
<!-- 19&#45;&gt;20 -->
<g id="edge22" class="edge">
<title>19&#45;&gt;20</title>
<path fill="none" stroke="black" d="M276,-391.6C276,-383.99 276,-375.2 276,-366.84"/>
<polygon fill="black" stroke="black" points="279.5,-366.97 276,-356.97 272.5,-366.97 279.5,-366.97"/>
</g>
<!-- 21 -->
<g id="node22" class="node">
<title>21</title>
<polygon fill="#c1ffc1" stroke="none" points="356.5,-275.5 195.5,-275.5 195.5,-231.5 356.5,-231.5 356.5,-275.5"/>
<polygon fill="none" stroke="black" points="195.5,-231.5 195.5,-275.5 241.5,-275.5 241.5,-231.5 195.5,-231.5"/>
<text text-anchor="start" x="203.5" y="-256.75" font-family="Linux libertine" font-size="10.00">Linear</text>
<text text-anchor="start" x="200.12" y="-244" font-family="Linux libertine" font-size="10.00">depth:2</text>
<polygon fill="none" stroke="black" points="241.5,-253.5 241.5,-275.5 288.5,-275.5 288.5,-253.5 241.5,-253.5"/>
<text text-anchor="start" x="251.12" y="-261" font-family="Linux libertine" font-size="10.00">input:</text>
<polygon fill="none" stroke="black" points="288.5,-253.5 288.5,-275.5 356.5,-275.5 356.5,-253.5 288.5,-253.5"/>
<text text-anchor="start" x="293.25" y="-261" font-family="Linux libertine" font-size="10.00">(64, 1, 128) </text>
<polygon fill="none" stroke="black" points="241.5,-231.5 241.5,-253.5 288.5,-253.5 288.5,-231.5 241.5,-231.5"/>
<text text-anchor="start" x="246.25" y="-239" font-family="Linux libertine" font-size="10.00">output: </text>
<polygon fill="none" stroke="black" points="288.5,-231.5 288.5,-253.5 356.5,-253.5 356.5,-231.5 288.5,-231.5"/>
<text text-anchor="start" x="293.25" y="-239" font-family="Linux libertine" font-size="10.00">(64, 1, 128) </text>
</g>
<!-- 20&#45;&gt;21 -->
<g id="edge23" class="edge">
<title>20&#45;&gt;21</title>
<path fill="none" stroke="black" d="M276,-311.6C276,-303.99 276,-295.2 276,-286.84"/>
<polygon fill="black" stroke="black" points="279.5,-286.97 276,-276.97 272.5,-286.97 279.5,-286.97"/>
</g>
<!-- 22 -->
<g id="node23" class="node">
<title>22</title>
<polygon fill="aliceblue" stroke="none" points="358.5,-195.5 193.5,-195.5 193.5,-151.5 358.5,-151.5 358.5,-195.5"/>
<polygon fill="none" stroke="black" points="193.5,-151.5 193.5,-195.5 243.5,-195.5 243.5,-151.5 193.5,-151.5"/>
<text text-anchor="start" x="198.25" y="-176.75" font-family="Linux libertine" font-size="10.00">squeeze</text>
<text text-anchor="start" x="200.12" y="-164" font-family="Linux libertine" font-size="10.00">depth:1</text>
<polygon fill="none" stroke="black" points="243.5,-173.5 243.5,-195.5 290.5,-195.5 290.5,-173.5 243.5,-173.5"/>
<text text-anchor="start" x="253.12" y="-181" font-family="Linux libertine" font-size="10.00">input:</text>
<polygon fill="none" stroke="black" points="290.5,-173.5 290.5,-195.5 358.5,-195.5 358.5,-173.5 290.5,-173.5"/>
<text text-anchor="start" x="295.25" y="-181" font-family="Linux libertine" font-size="10.00">(64, 1, 128) </text>
<polygon fill="none" stroke="black" points="243.5,-151.5 243.5,-173.5 290.5,-173.5 290.5,-151.5 243.5,-151.5"/>
<text text-anchor="start" x="248.25" y="-159" font-family="Linux libertine" font-size="10.00">output: </text>
<polygon fill="none" stroke="black" points="290.5,-151.5 290.5,-173.5 358.5,-173.5 358.5,-151.5 290.5,-151.5"/>
<text text-anchor="start" x="301.25" y="-159" font-family="Linux libertine" font-size="10.00">(64, 128) </text>
</g>
<!-- 21&#45;&gt;22 -->
<g id="edge24" class="edge">
<title>21&#45;&gt;22</title>
<path fill="none" stroke="black" d="M276,-231.6C276,-223.99 276,-215.2 276,-206.84"/>
<polygon fill="black" stroke="black" points="279.5,-206.97 276,-196.97 272.5,-206.97 279.5,-206.97"/>
</g>
<!-- 23 -->
<g id="node24" class="node">
<title>23</title>
<polygon fill="#c1ffc1" stroke="none" points="350.5,-115.5 201.5,-115.5 201.5,-71.5 350.5,-71.5 350.5,-115.5"/>
<polygon fill="none" stroke="black" points="201.5,-71.5 201.5,-115.5 247.5,-115.5 247.5,-71.5 201.5,-71.5"/>
<text text-anchor="start" x="209.5" y="-96.75" font-family="Linux libertine" font-size="10.00">Linear</text>
<text text-anchor="start" x="206.12" y="-84" font-family="Linux libertine" font-size="10.00">depth:1</text>
<polygon fill="none" stroke="black" points="247.5,-93.5 247.5,-115.5 294.5,-115.5 294.5,-93.5 247.5,-93.5"/>
<text text-anchor="start" x="257.12" y="-101" font-family="Linux libertine" font-size="10.00">input:</text>
<polygon fill="none" stroke="black" points="294.5,-93.5 294.5,-115.5 350.5,-115.5 350.5,-93.5 294.5,-93.5"/>
<text text-anchor="start" x="299.25" y="-101" font-family="Linux libertine" font-size="10.00">(64, 128) </text>
<polygon fill="none" stroke="black" points="247.5,-71.5 247.5,-93.5 294.5,-93.5 294.5,-71.5 247.5,-71.5"/>
<text text-anchor="start" x="252.25" y="-79" font-family="Linux libertine" font-size="10.00">output: </text>
<polygon fill="none" stroke="black" points="294.5,-71.5 294.5,-93.5 350.5,-93.5 350.5,-71.5 294.5,-71.5"/>
<text text-anchor="start" x="302.25" y="-79" font-family="Linux libertine" font-size="10.00">(64, 10) </text>
</g>
<!-- 22&#45;&gt;23 -->
<g id="edge25" class="edge">
<title>22&#45;&gt;23</title>
<path fill="none" stroke="black" d="M276,-151.6C276,-143.99 276,-135.2 276,-126.84"/>
<polygon fill="black" stroke="black" points="279.5,-126.97 276,-116.97 272.5,-126.97 279.5,-126.97"/>
</g>
<!-- 24 -->
<g id="node25" class="node">
<title>24</title>
<polygon fill="lightyellow" stroke="none" points="337.75,-35.5 214.25,-35.5 214.25,0 337.75,0 337.75,-35.5"/>
<polygon fill="none" stroke="black" points="214.25,0 214.25,-35.5 290.25,-35.5 290.25,0 214.25,0"/>
<text text-anchor="start" x="219.25" y="-21" font-family="Linux libertine" font-size="10.00">output&#45;tensor</text>
<text text-anchor="start" x="233.88" y="-8.25" font-family="Linux libertine" font-size="10.00">depth:0</text>
<polygon fill="none" stroke="black" points="290.25,0 290.25,-35.5 337.75,-35.5 337.75,0 290.25,0"/>
<text text-anchor="start" x="295.25" y="-14.62" font-family="Linux libertine" font-size="10.00">(64, 10)</text>
</g>
<!-- 23&#45;&gt;24 -->
<g id="edge26" class="edge">
<title>23&#45;&gt;24</title>
<path fill="none" stroke="black" d="M276,-71.56C276,-63.78 276,-54.83 276,-46.53"/>
<polygon fill="black" stroke="black" points="279.5,-46.56 276,-36.56 272.5,-46.56 279.5,-46.56"/>
</g>
</g>
</svg>
